<svg width="37" height="25" viewBox="0 0 37 25" fill="none" xmlns="http://www.w3.org/2000/svg">
<path d="M0 6C0 2.68629 2.68629 0 6 0H31C34.3137 0 37 2.68629 37 6V19C37 22.3137 34.3137 25 31 25H6C2.68629 25 0 22.3137 0 19V6Z" fill="#1F72CD"/>
<path fill-rule="evenodd" clip-rule="evenodd" d="M31 1H6C3.23858 1 1 3.23858 1 6V19C1 21.7614 3.23858 24 6 24H31C33.7614 24 36 21.7614 36 19V6C36 3.23858 33.7614 1 31 1ZM6 0C2.68629 0 0 2.68629 0 6V19C0 22.3137 2.68629 25 6 25H31C34.3137 25 37 22.3137 37 19V6C37 2.68629 34.3137 0 31 0H6Z" fill="#D9D9D9"/>
<path fill-rule="evenodd" clip-rule="evenodd" d="M6.63323 8.85417L3.17143 16.4029H7.31568L7.82945 15.1993H9.00381L9.51758 16.4029H14.0792V15.4843L14.4857 16.4029H16.8454L17.2518 15.4648V16.4029H26.7389L27.8924 15.2305L28.9726 16.4029L33.8453 16.4126L30.3726 12.6496L33.8453 8.85417H29.0482L27.9252 10.0048L26.8791 8.85417H16.5584L15.6722 10.8025L14.7652 8.85417H10.6296V9.74152L10.1695 8.85417H6.63323ZM20.8001 9.9261H26.248L27.9143 11.6996L29.6343 9.9261H31.3005L28.7688 12.6485L31.3005 15.3396H29.5587L27.8924 13.5455L26.1637 15.3396H20.8001V9.9261ZM22.1455 12.0364V11.0476L25.5448 11.0467L27.0281 12.628L25.4791 14.218H22.1455V13.1385H25.1175V12.0364H22.1455ZM7.43512 9.9261H9.45522L11.7514 15.0449V9.9261H13.9644L15.7379 13.5963L17.3725 9.9261H19.5744V15.3428H18.2346L18.2236 11.0983L16.2703 15.3428H15.0718L13.1076 11.0983V15.3428H10.3513L9.82877 14.1284H7.0057L6.48424 15.3417H5.00746L7.43512 9.9261ZM7.48774 13.0058L8.41783 10.8426L9.34684 13.0058H7.48774Z" fill="white"/>
</svg>
