<svg width="37" height="25" viewBox="0 0 37 25" fill="none" xmlns="http://www.w3.org/2000/svg">
<path d="M0 6C0 2.68629 2.68629 0 6 0H31C34.3137 0 37 2.68629 37 6V19C37 22.3137 34.3137 25 31 25H6C2.68629 25 0 22.3137 0 19V6Z" fill="white"/>
<path fill-rule="evenodd" clip-rule="evenodd" d="M31 1H6C3.23858 1 1 3.23858 1 6V19C1 21.7614 3.23858 24 6 24H31C33.7614 24 36 21.7614 36 19V6C36 3.23858 33.7614 1 31 1ZM6 0C2.68629 0 0 2.68629 0 6V19C0 22.3137 2.68629 25 6 25H31C34.3137 25 37 22.3137 37 19V6C37 2.68629 34.3137 0 31 0H6Z" fill="#D9D9D9"/>
<path fill-rule="evenodd" clip-rule="evenodd" d="M8.82314 9.30516C9.32004 9.34647 9.81694 9.05735 10.1275 8.69079C10.4329 8.3139 10.6348 7.80795 10.583 7.29167C10.143 7.31232 9.59954 7.58078 9.28898 7.95767C9.0043 8.28293 8.76102 8.80953 8.82314 9.30516ZM14.7342 15.9549V7.90604H17.7622C19.3253 7.90604 20.4175 8.9799 20.4175 10.5494C20.4175 12.1189 19.3046 13.2031 17.7208 13.2031H15.9868V15.9549H14.7342ZM10.5778 9.40325C10.14 9.37812 9.74058 9.53457 9.41794 9.66093C9.21032 9.74225 9.0345 9.81112 8.90073 9.81112C8.75063 9.81112 8.56755 9.73857 8.36199 9.65712C8.09265 9.55039 7.78471 9.42837 7.46179 9.43423C6.72162 9.44456 6.03321 9.86274 5.65535 10.5287C4.87895 11.8608 5.45349 13.8329 6.20401 14.9171C6.57151 15.4541 7.01148 16.0426 7.5912 16.022C7.84624 16.0124 8.0297 15.9347 8.21956 15.8544C8.43815 15.7619 8.66522 15.6657 9.01978 15.6657C9.36205 15.6657 9.5792 15.7593 9.78764 15.8492C9.98584 15.9346 10.1762 16.0167 10.4587 16.0117C11.0591 16.0013 11.437 15.4747 11.8045 14.9378C12.2011 14.3615 12.3754 13.7991 12.4018 13.7137L12.4049 13.7039C12.4043 13.7032 12.3994 13.701 12.3908 13.6971C12.2582 13.6365 11.2449 13.1738 11.2351 11.933C11.2254 10.8916 12.0389 10.3639 12.1669 10.2808C12.1747 10.2758 12.18 10.2724 12.1823 10.2706C11.6647 9.50651 10.8573 9.4239 10.5778 9.40325ZM22.7053 16.0168C23.4921 16.0168 24.2219 15.6193 24.5532 14.9894H24.5791V15.9549H25.7385V11.9485C25.7385 10.7869 24.8068 10.0383 23.3731 10.0383C22.0428 10.0383 21.0594 10.7972 21.0231 11.8401H22.1515C22.2447 11.3445 22.7053 11.0192 23.3368 11.0192C24.1029 11.0192 24.5325 11.3755 24.5325 12.0311V12.4751L22.9693 12.5681C21.5149 12.6558 20.7281 13.2495 20.7281 14.2821C20.7281 15.325 21.5407 16.0168 22.7053 16.0168ZM23.0417 15.0617C22.374 15.0617 21.9496 14.7416 21.9496 14.2511C21.9496 13.7452 22.3585 13.4509 23.1401 13.4044L24.5324 13.3167V13.771C24.5324 14.5248 23.8906 15.0617 23.0417 15.0617ZM29.5843 16.2698C29.0822 17.6792 28.5076 18.1439 27.2861 18.1439C27.1929 18.1439 26.8824 18.1336 26.8099 18.1129V17.1475C26.8875 17.1578 27.0791 17.1681 27.1774 17.1681C27.7312 17.1681 28.0418 16.9358 28.2333 16.3318L28.3472 15.9755L26.225 10.1157H27.5345L29.0097 14.8707H29.0356L30.5108 10.1157H31.7841L29.5843 16.2698ZM15.9867 8.95925H17.4308C18.5178 8.95925 19.1389 9.53749 19.1389 10.5546C19.1389 11.5716 18.5178 12.155 17.4256 12.155H15.9867V8.95925Z" fill="black"/>
</svg>
