<svg width="37" height="25" viewBox="0 0 37 25" fill="none" xmlns="http://www.w3.org/2000/svg">
<path d="M0 6C0 2.68629 2.68629 0 6 0H31C34.3137 0 37 2.68629 37 6V19C37 22.3137 34.3137 25 31 25H6C2.68629 25 0 22.3137 0 19V6Z" fill="white"/>
<path fill-rule="evenodd" clip-rule="evenodd" d="M31 1H6C3.23858 1 1 3.23858 1 6V19C1 21.7614 3.23858 24 6 24H31C33.7614 24 36 21.7614 36 19V6C36 3.23858 33.7614 1 31 1ZM6 0C2.68629 0 0 2.68629 0 6V19C0 22.3137 2.68629 25 6 25H31C34.3137 25 37 22.3137 37 19V6C37 2.68629 34.3137 0 31 0H6Z" fill="#D9D9D9"/>
<path fill-rule="evenodd" clip-rule="evenodd" d="M18.7643 17.8718C17.5046 18.9429 15.8706 19.5896 14.0851 19.5896C10.1011 19.5896 6.87143 16.3702 6.87143 12.3989C6.87143 8.42768 10.1011 5.20833 14.0851 5.20833C15.8706 5.20833 17.5046 5.85495 18.7643 6.92607C20.0239 5.85495 21.6579 5.20833 23.4434 5.20833C27.4275 5.20833 30.6571 8.42768 30.6571 12.3989C30.6571 16.3702 27.4275 19.5896 23.4434 19.5896C21.6579 19.5896 20.0239 18.9429 18.7643 17.8718Z" fill="#ED0006"/>
<path fill-rule="evenodd" clip-rule="evenodd" d="M18.7643 17.8718C20.3153 16.5529 21.2988 14.5904 21.2988 12.3989C21.2988 10.2075 20.3153 8.24496 18.7643 6.92607C20.0239 5.85495 21.6579 5.20833 23.4434 5.20833C27.4275 5.20833 30.6571 8.42768 30.6571 12.3989C30.6571 16.3702 27.4275 19.5896 23.4434 19.5896C21.6579 19.5896 20.0239 18.9429 18.7643 17.8718Z" fill="#F9A000"/>
<path fill-rule="evenodd" clip-rule="evenodd" d="M18.7643 17.8718C20.3153 16.5529 21.2988 14.5904 21.2988 12.3989C21.2988 10.2075 20.3153 8.24496 18.7643 6.92607C17.2133 8.24496 16.2298 10.2075 16.2298 12.399C16.2298 14.5904 17.2133 16.5529 18.7643 17.8718Z" fill="#FF5E00"/>
</svg>
