<svg width="37" height="25" viewBox="0 0 37 25" fill="none" xmlns="http://www.w3.org/2000/svg">
<path d="M0 6C0 2.68629 2.68629 0 6 0H31C34.3137 0 37 2.68629 37 6V19C37 22.3137 34.3137 25 31 25H6C2.68629 25 0 22.3137 0 19V6Z" fill="white"/>
<path fill-rule="evenodd" clip-rule="evenodd" d="M31 1H6C3.23858 1 1 3.23858 1 6V19C1 21.7614 3.23858 24 6 24H31C33.7614 24 36 21.7614 36 19V6C36 3.23858 33.7614 1 31 1ZM6 0C2.68629 0 0 2.68629 0 6V19C0 22.3137 2.68629 25 6 25H31C34.3137 25 37 22.3137 37 19V6C37 2.68629 34.3137 0 31 0H6Z" fill="#D9D9D9"/>
<path fill-rule="evenodd" clip-rule="evenodd" d="M11.2324 16.9357H8.99093L7.31009 10.6171C7.23031 10.3264 7.06092 10.0694 6.81174 9.94833C6.1899 9.64399 5.50467 9.40177 4.75714 9.27961V9.03635H8.368C8.86635 9.03635 9.24011 9.40177 9.3024 9.82617L10.1745 14.384L12.4149 9.03635H14.5941L11.2324 16.9357ZM15.84 16.9357H13.7231L15.4662 9.03635H17.5831L15.84 16.9357ZM20.3218 11.2247C20.3841 10.7992 20.7579 10.556 21.194 10.556C21.8792 10.4949 22.6256 10.6171 23.2486 10.9204L23.6223 9.21959C22.9994 8.97633 22.3141 8.85417 21.6923 8.85417C19.6377 8.85417 18.1427 9.94834 18.1427 11.4669C18.1427 12.6222 19.2016 13.2288 19.9492 13.5942C20.7579 13.9586 21.0694 14.2018 21.0071 14.5662C21.0071 15.1128 20.3841 15.356 19.7623 15.356C19.0148 15.356 18.2672 15.1738 17.5831 14.8695L17.2093 16.5713C17.9569 16.8746 18.7656 16.9968 19.5131 16.9968C21.8169 17.0568 23.2486 15.9637 23.2486 14.3229C23.2486 12.2567 20.3218 12.1356 20.3218 11.2247ZM30.6571 16.9357L28.9763 9.03635H27.1709C26.7971 9.03635 26.4234 9.27961 26.2988 9.64399L23.1863 16.9357H25.3655L25.8004 15.7815H28.478L28.7271 16.9357H30.6571ZM27.4823 11.1636L28.1042 14.1407H26.3611L27.4823 11.1636Z" fill="#172B85"/>
</svg>
