<svg width="26" height="25" viewBox="0 0 26 25" fill="none" xmlns="http://www.w3.org/2000/svg">
<path d="M2.59965 5.52326C2.59965 3.43613 4.2916 1.74419 6.37872 1.74419H15.681C16.1627 1.74419 16.5531 1.35374 16.5531 0.872093C16.5531 0.390449 16.1627 0 15.681 0H6.37872C3.32831 0 0.855469 2.47285 0.855469 5.52326V19.4767C0.855469 22.5272 3.32831 25 6.37872 25H20.3322C23.3826 25 25.8555 22.5272 25.8555 19.4767V10.1744C25.8555 9.69277 25.465 9.30233 24.9834 9.30233C24.5017 9.30233 24.1113 9.69277 24.1113 10.1744V13.9929C24.0496 13.9994 23.9874 14.0133 23.9255 14.0354L12.9602 17.9554C10.2822 18.9128 7.30923 18.5472 4.9429 16.9697L2.59965 15.4075V5.52326Z" fill="#28303F"/>
<path d="M22.3662 0.872093C22.3662 0.390449 21.9758 0 21.4941 0C21.0125 0 20.622 0.390449 20.622 0.872093V3.4885H18.005C17.5234 3.4885 17.1329 3.87895 17.1329 4.36059C17.1329 4.84223 17.5234 5.23268 18.005 5.23268H20.622V7.84884C20.622 8.33048 21.0125 8.72093 21.4941 8.72093C21.9758 8.72093 22.3662 8.33048 22.3662 7.84884V5.23268H24.9818C25.4634 5.23268 25.8539 4.84224 25.8539 4.36059C25.8539 3.87895 25.4634 3.4885 24.9818 3.4885H22.3662V0.872093Z" fill="#28303F"/>
<path d="M9.28545 11.337C10.8909 11.337 12.1924 10.0355 12.1924 8.42998C12.1924 6.8245 10.8909 5.523 9.28545 5.523C7.67997 5.523 6.37847 6.8245 6.37847 8.42998C6.37847 10.0355 7.67997 11.337 9.28545 11.337Z" fill="#28303F"/>
</svg>
