<svg width="26" height="26" viewBox="0 0 26 26" fill="none" xmlns="http://www.w3.org/2000/svg">
<path fill-rule="evenodd" clip-rule="evenodd" d="M14.0604 19.9003C14.0604 20.725 14.2056 21.5158 14.4718 22.2485C13.702 22.4149 12.9029 22.5025 12.0833 22.5025C5.86939 22.5025 0.832031 17.4652 0.832031 11.2513C0.832031 5.03736 5.86939 0 12.0833 0C18.2972 0 23.3345 5.03736 23.3345 11.2513C23.3345 11.9801 23.2652 12.6927 23.1329 13.3829C22.4431 13.1505 21.7044 13.0245 20.9362 13.0245C17.1388 13.0245 14.0604 16.1029 14.0604 19.9003ZM11.9679 4.55129C10.6049 4.55129 9.50007 5.65569 9.50007 7.01804C9.50007 8.38038 10.6049 9.48479 11.9679 9.48479C13.3308 9.48478 14.4357 8.38038 14.4357 7.01804C14.4357 5.65569 13.3308 4.5513 11.9679 4.55129ZM11.9679 10.7182C9.58273 10.7182 7.6492 11.8226 7.6492 13.1849C7.6492 15.6297 8.90459 15.5369 10.6401 15.4086C11.0584 15.3777 11.5046 15.3447 11.9679 15.3447C12.4311 15.3447 12.8773 15.3777 13.2957 15.4086C15.0311 15.5369 16.2865 15.6297 16.2865 13.1849C16.2865 11.8226 14.353 10.7182 11.9679 10.7182Z" fill="#23292F"/>
<path fill-rule="evenodd" clip-rule="evenodd" d="M23.6432 15.864C22.8422 15.3187 21.8746 15 20.8326 15C18.0709 15 15.832 17.2388 15.832 20.0006C15.832 21.0426 16.1508 22.0102 16.696 22.8111L23.6432 15.864ZM24.9691 17.19L18.022 24.1371C18.823 24.6824 19.7906 25.0011 20.8326 25.0011C23.5943 25.0011 25.8331 22.7623 25.8331 20.0006C25.8331 18.9585 25.5144 17.9909 24.9691 17.19Z" fill="#28303F"/>
</svg>
