<svg width="109" height="126" viewBox="0 0 109 126" fill="none" xmlns="http://www.w3.org/2000/svg">
<path fill-rule="evenodd" clip-rule="evenodd" d="M30.2778 0C32.7861 0 34.8194 2.03337 34.8194 4.54167V13.6246H74.1806V4.54167C74.1806 2.03337 76.2139 0 78.7222 0C81.2305 0 83.2639 2.03337 83.2639 4.54167V13.6246H84.7778C98.1553 13.6246 109 24.4692 109 37.8468L109 42.3885H0V37.8468C0 24.4692 10.8447 13.6246 24.2222 13.6246H25.7361V4.54167C25.7361 2.03337 27.7695 0 30.2778 0ZM0 51.4718H109L109 101.43C109 114.808 98.1553 125.652 84.7778 125.652H24.2222C10.8447 125.652 0 114.808 0 101.43V51.4718Z" fill="#23292F"/>
</svg>
