<svg width="31" height="25" viewBox="0 0 31 25" fill="none" xmlns="http://www.w3.org/2000/svg">
<path d="M4.89324 0.10882C13.426 2.19839 18.1896 3.0251 26.629 3.46117C28.2205 3.54341 29.9509 4.53495 30.2564 5.95092C30.6843 7.33336 29.6681 9.07732 28.3299 9.96217C21.2341 14.6542 17.5127 17.8054 11.1446 23.9771C8.5858 26.457 4.3781 24.0822 4.93754 20.5465L5.94686 14.1677C5.96633 14.0446 5.97977 13.9213 5.98727 13.7981L12.2029 12.0953C12.8221 11.9257 13.1965 11.2905 13.0556 10.6632L13.059 10.6622C12.8742 10.0469 12.2394 9.68816 11.6202 9.8578L5.40488 11.5605C5.33815 11.4577 5.26621 11.3577 5.18917 11.2611L1.19569 6.25282C-1.01779 3.47685 1.46461 -0.730811 4.89324 0.10882Z" fill="#23292F"/>
</svg>
