<svg width="26" height="25" viewBox="0 0 26 25" fill="none" xmlns="http://www.w3.org/2000/svg">
<path fill-rule="evenodd" clip-rule="evenodd" d="M13.3555 25C20.259 25 25.8555 19.4036 25.8555 12.5C25.8555 5.59644 20.259 0 13.3555 0C6.45191 0 0.855469 5.59644 0.855469 12.5C0.855469 19.4036 6.45191 25 13.3555 25ZM18.4645 10.0221C18.7824 9.61341 18.7088 9.0244 18.3001 8.70652C17.8914 8.38864 17.3024 8.46227 16.9845 8.87097L12.6067 14.6143C12.4953 14.7575 12.2858 14.7761 12.151 14.6547L8.98263 11.8032C8.59778 11.4568 8.00501 11.488 7.65864 11.8729C7.31227 12.2577 7.34347 12.8505 7.72832 13.1969L10.8967 16.0484C11.8406 16.8979 13.3071 16.7678 14.0867 15.7654L18.4645 10.0221Z" fill="#23292F"/>
</svg>
