<svg width="63" height="63" viewBox="0 0 63 63" fill="none" xmlns="http://www.w3.org/2000/svg">
<path d="M59 31.5C59 46.6878 46.6878 59 31.5 59C16.3122 59 4 46.6878 4 31.5C4 16.3122 16.3122 4 31.5 4C46.6878 4 59 16.3122 59 31.5Z" fill="#4285F4"/>
<path fill-rule="evenodd" clip-rule="evenodd" d="M46.4508 20.5496C47.1831 21.2824 47.1831 22.4706 46.4508 23.2034L28.5847 41.084C27.3643 42.3053 25.3857 42.3053 24.1653 41.084L17.5492 34.4625C16.8169 33.7297 16.8169 32.5415 17.5492 31.8087C18.2814 31.0759 19.4686 31.0759 20.2008 31.8087L26.375 37.9879L43.7992 20.5496C44.5314 19.8168 45.7186 19.8168 46.4508 20.5496Z" fill="#FDFCFC"/>
</svg>
