<svg width="35" height="35" viewBox="0 0 35 35" fill="none" xmlns="http://www.w3.org/2000/svg">
<g filter="url(#filter0_b_664_397)">
<circle cx="17.5" cy="17.5" r="17.5" fill="#FDFCFC"/>
</g>
<path d="M11.9947 12.2777C11.9947 9.91519 13.7824 8 15.9876 8C18.1928 8.00001 19.9805 9.91519 19.9805 12.2777C19.9805 14.6402 18.1928 16.5554 15.9876 16.5554C13.7824 16.5554 11.9947 14.6402 11.9947 12.2777Z" fill="#23292F"/>
<path d="M9 22.9719C9 20.6094 12.1285 18.6942 15.9876 18.6942C19.8467 18.6942 22.9752 20.6094 22.9752 22.9719C22.9752 27.2115 20.944 27.0506 18.136 26.8282C17.4591 26.7745 16.7371 26.7174 15.9876 26.7174C15.2381 26.7174 14.5161 26.7745 13.8392 26.8282C11.0312 27.0506 9 27.2115 9 22.9719Z" fill="#23292F"/>
<path d="M19.4665 16.4362C19.8532 16.62 21.0379 16.722 21.4881 16.722C23.2153 16.722 24.6155 15.2195 24.6155 13.3661C24.6155 11.5127 23.2153 10.0103 21.4881 10.0103C21.4414 10.0103 20.6381 10.0113 20.5919 10.0135C21.3528 10.7023 21.8359 11.7321 21.8359 12.8828C21.8359 14.5308 20.8449 15.9309 19.4665 16.4362Z" fill="#23292F"/>
<path d="M23.9071 24.8506C25.2977 24.8101 26.9611 24.2666 26.9611 21.7559C26.9611 19.9025 24.5107 18.4 21.4881 18.4C20.9299 18.4 19.6345 18.4512 19.1272 18.5464C22.1385 18.7854 24.4646 20.3613 24.4646 22.2699C24.4646 23.515 24.265 24.3277 23.9071 24.8506Z" fill="#23292F"/>
<defs>
<filter id="filter0_b_664_397" x="-18" y="-18" width="71" height="71" filterUnits="userSpaceOnUse" color-interpolation-filters="sRGB">
<feFlood flood-opacity="0" result="BackgroundImageFix"/>
<feGaussianBlur in="BackgroundImageFix" stdDeviation="9"/>
<feComposite in2="SourceAlpha" operator="in" result="effect1_backgroundBlur_664_397"/>
<feBlend mode="normal" in="SourceGraphic" in2="effect1_backgroundBlur_664_397" result="shape"/>
</filter>
</defs>
</svg>
