<svg width="35" height="35" viewBox="0 0 35 35" fill="none" xmlns="http://www.w3.org/2000/svg">
<g filter="url(#filter0_b_664_399)">
<circle cx="17.5" cy="17.5" r="17.5" fill="#FDFCFC"/>
</g>
<path d="M22.4757 20.7411C22.4757 19.8599 23.1992 19.1456 24.0918 19.1456C24.9843 19.1456 25.7079 19.8599 25.7079 20.7411C25.7079 21.6223 24.9843 22.3366 24.0918 22.3366C23.1992 22.3366 22.4757 21.6223 22.4757 20.7411Z" fill="#23292F"/>
<path d="M21.2636 24.73C21.2636 23.8488 22.5298 23.1344 24.0918 23.1344C25.6538 23.1344 26.92 23.8488 26.92 24.73C26.92 26.3113 26.0979 26.2513 24.9613 26.1683C24.6874 26.1483 24.3952 26.127 24.0918 26.127C23.7884 26.127 23.4962 26.1483 23.2222 26.1683C22.0857 26.2513 21.2636 26.3113 21.2636 24.73Z" fill="#23292F"/>
<path d="M9.35052 9.59554C9.35052 8.71435 10.0741 8 10.9666 8C11.8592 8 12.5828 8.71435 12.5828 9.59554C12.5828 10.4767 11.8592 11.1911 10.9666 11.1911C10.0741 11.1911 9.35052 10.4767 9.35052 9.59554Z" fill="#23292F"/>
<path d="M8.13842 13.5844C8.13842 12.7032 9.40466 11.9889 10.9666 11.9889C12.5286 11.9889 13.7949 12.7032 13.7949 13.5844C13.7949 15.1657 12.9727 15.1057 11.8362 15.0227C11.5622 15.0027 11.27 14.9814 10.9666 14.9814C10.6633 14.9814 10.371 15.0027 10.0971 15.0227C8.96055 15.1057 8.13842 15.1657 8.13842 13.5844Z" fill="#23292F"/>
<path fill-rule="evenodd" clip-rule="evenodd" d="M19.0117 26.1004C19.0367 26.5172 18.7257 26.8758 18.3171 26.9014C17.0407 26.9812 15.7614 26.8039 14.5522 26.3795C13.343 25.9551 12.2276 25.2919 11.2697 24.4279C10.3118 23.5639 9.53019 22.5159 8.96941 21.3438C8.40863 20.1717 8.07971 18.8985 8.00142 17.5967C7.97635 17.1799 8.28733 16.8213 8.69601 16.7957C9.1047 16.7702 9.45632 17.0873 9.48139 17.5041C9.54776 18.6077 9.8266 19.6871 10.302 20.6807C10.7774 21.6743 11.44 22.5627 12.2521 23.2952C13.0641 24.0276 14.0096 24.5898 15.0347 24.9496C16.0598 25.3093 17.1443 25.4597 18.2263 25.392C18.635 25.3664 18.9866 25.6836 19.0117 26.1004Z" fill="#23292F"/>
<path fill-rule="evenodd" clip-rule="evenodd" d="M25.7291 17.4165C26.1343 17.3567 26.4153 16.9731 26.3566 16.5599C26.1733 15.2691 25.7425 14.0279 25.0888 12.9069C24.4351 11.786 23.5713 10.8073 22.5468 10.0269C21.5223 9.24637 20.3571 8.67933 19.1177 8.35811C17.8783 8.03689 16.589 7.96779 15.3234 8.15474C14.9181 8.2146 14.6372 8.59815 14.6959 9.01143C14.7546 9.4247 15.1307 9.7112 15.5359 9.65134C16.6088 9.49285 17.7018 9.55143 18.7525 9.82374C19.8031 10.096 20.7909 10.5767 21.6595 11.2384C22.528 11.9 23.2602 12.7297 23.8144 13.6799C24.3685 14.6302 24.7337 15.6824 24.8891 16.7766C24.9478 17.1899 25.3239 17.4764 25.7291 17.4165Z" fill="#23292F"/>
<defs>
<filter id="filter0_b_664_399" x="-18" y="-18" width="71" height="71" filterUnits="userSpaceOnUse" color-interpolation-filters="sRGB">
<feFlood flood-opacity="0" result="BackgroundImageFix"/>
<feGaussianBlur in="BackgroundImageFix" stdDeviation="9"/>
<feComposite in2="SourceAlpha" operator="in" result="effect1_backgroundBlur_664_399"/>
<feBlend mode="normal" in="SourceGraphic" in2="effect1_backgroundBlur_664_399" result="shape"/>
</filter>
</defs>
</svg>
