<svg width="26" height="25" viewBox="0 0 26 25" fill="none" xmlns="http://www.w3.org/2000/svg">
<path fill-rule="evenodd" clip-rule="evenodd" d="M10.1211 0H15.1211C20.6439 0 25.1211 4.47715 25.1211 10V15C25.1211 20.5228 20.6439 25 15.1211 25H10.1211C4.59825 25 0.121094 20.5228 0.121094 15V10C0.121094 4.47715 4.59825 0 10.1211 0ZM6.59078 6.25163C6.59078 5.67633 7.05715 5.20996 7.63245 5.20996C8.20775 5.20996 8.67412 5.67633 8.67412 6.25163V7.08767C9.74247 6.34221 11.0423 5.90441 12.4448 5.90441C16.0883 5.90441 19.042 8.85808 19.042 12.5016C19.042 16.1452 16.0883 19.0989 12.4448 19.0989C9.3693 19.0989 6.78776 16.9954 6.05545 14.1502C5.91205 13.593 6.24746 13.0251 6.80459 12.8817C7.36173 12.7383 7.92963 13.0737 8.07303 13.6309C8.57417 15.578 10.3429 17.0155 12.4448 17.0155C14.9377 17.0155 16.9587 14.9946 16.9587 12.5016C16.9587 10.0087 14.9377 7.98774 12.4448 7.98774C11.3016 7.98774 10.257 8.41245 9.46097 9.11429L10.6183 9.4088C11.1759 9.55067 11.5128 10.1177 11.3709 10.6752C11.2291 11.2327 10.6621 11.5697 10.1046 11.4278L7.37556 10.7333C6.91392 10.6159 6.59078 10.2002 6.59078 9.72385V6.25163Z" fill="#23292F"/>
</svg>
