<svg width="19" height="5" viewBox="0 0 19 5" fill="none" xmlns="http://www.w3.org/2000/svg">
<path d="M2.85547 0.5C3.96004 0.5 4.85547 1.39543 4.85547 2.5C4.85547 3.60457 3.96004 4.5 2.85547 4.5C1.7509 4.5 0.855469 3.60457 0.855469 2.5C0.855469 1.39543 1.7509 0.5 2.85547 0.5Z" fill="#23292F"/>
<path d="M9.85547 0.5C10.96 0.5 11.8555 1.39543 11.8555 2.5C11.8555 3.60457 10.96 4.5 9.85547 4.5C8.7509 4.5 7.85547 3.60457 7.85547 2.5C7.85547 1.39543 8.7509 0.5 9.85547 0.5Z" fill="#23292F"/>
<path d="M16.8555 0.5C17.96 0.5 18.8555 1.39543 18.8555 2.5C18.8555 3.60457 17.96 4.5 16.8555 4.5C15.7509 4.5 14.8555 3.60457 14.8555 2.5C14.8555 1.39543 15.7509 0.5 16.8555 0.5Z" fill="#23292F"/>
</svg>
