<svg width="26" height="25" viewBox="0 0 26 25" fill="none" xmlns="http://www.w3.org/2000/svg">
<path d="M17.2314 12.5L24.9833 4.74805C26.1461 3.58526 26.1461 2.03488 24.9833 0.872091C23.8205 -0.290697 22.2701 -0.290697 21.1074 0.872091L13.3554 8.62404L5.60352 0.872152C4.44073 -0.290636 2.89035 -0.290636 1.72756 0.872152C0.564772 2.03494 0.564772 3.58532 1.72756 4.74811L9.47945 12.5L1.72756 20.2519C0.564772 21.4147 0.564772 22.9651 1.72756 24.1278C2.89035 25.2906 4.44073 25.2906 5.60352 24.1278L13.3554 16.376L21.1074 24.1279C22.2701 25.2907 23.8205 25.2907 24.9833 24.1279C26.1461 22.9651 26.1461 21.4147 24.9833 20.252L17.2314 12.5Z" fill="#23292F"/>
</svg>
