<svg width="31" height="25" viewBox="0 0 31 25" fill="none" xmlns="http://www.w3.org/2000/svg">
<path fill-rule="evenodd" clip-rule="evenodd" d="M15.8555 2.41935C14.3265 1.15298 12.308 0 10.0176 0C5.13205 0 0.855469 3.64664 0.855469 8.5158C0.855469 11.7396 2.23924 14.5355 4.08314 16.843C5.92205 19.1442 8.30802 21.0754 10.5557 22.6242C11.4167 23.2174 12.3064 23.7779 13.1357 24.198C13.8866 24.5784 14.8801 25 15.8555 25C16.8308 25 17.8243 24.5784 18.5752 24.198C19.4045 23.7779 20.2942 23.2174 21.1553 22.6242C23.4029 21.0754 25.7889 19.1442 27.6278 16.843C29.4717 14.5355 30.8555 11.7396 30.8555 8.5158C30.8555 3.64664 26.5789 0 21.6933 0C19.4029 0 17.3844 1.15298 15.8555 2.41935ZM15.8555 20.7235C15.8283 20.7164 15.7921 20.7061 15.7463 20.6909C15.5649 20.6312 15.3403 20.5338 15.0629 20.3933C14.4734 20.0947 13.7595 19.6523 12.9756 19.1122C10.8946 17.6783 8.88623 16.0216 7.41496 14.1805C5.94813 12.3449 5.12042 10.4621 5.12042 8.5158C5.12042 6.39256 7.07712 4.26496 10.0176 4.26496C10.8811 4.26496 11.9526 4.72465 13.135 5.70398C14.7131 7.01109 16.9978 7.01109 18.576 5.70398C19.7584 4.72465 20.8298 4.26496 21.6933 4.26496C24.6338 4.26496 26.5905 6.39256 26.5905 8.5158C26.5905 10.4621 25.7628 12.3449 24.296 14.1805C22.8247 16.0216 20.8163 17.6783 18.7353 19.1122C17.9515 19.6523 17.2375 20.0947 16.648 20.3933C16.3706 20.5338 16.146 20.6312 15.9647 20.6909C15.9188 20.7061 15.8826 20.7164 15.8555 20.7235Z" fill="#23292F"/>
</svg>
