<svg width="31" height="25" viewBox="0 0 31 25" fill="none" xmlns="http://www.w3.org/2000/svg">
<path fill-rule="evenodd" clip-rule="evenodd" d="M15.8555 2.41935C14.3265 1.15298 12.308 0 10.0176 0C5.13205 0 0.855469 3.64664 0.855469 8.5158C0.855469 11.7396 2.23924 14.5355 4.08314 16.843C5.92205 19.1442 8.30802 21.0754 10.5557 22.6242C11.4167 23.2174 12.3064 23.7779 13.1357 24.198C13.8866 24.5784 14.8801 25 15.8555 25C16.8308 25 17.8243 24.5784 18.5752 24.198C19.4045 23.7779 20.2942 23.2174 21.1553 22.6242C23.4029 21.0754 25.7889 19.1442 27.6278 16.843C29.4717 14.5355 30.8555 11.7396 30.8555 8.5158C30.8555 3.64664 26.5789 0 21.6933 0C19.4029 0 17.3844 1.15298 15.8555 2.41935Z" fill="#23292F"/>
</svg>
