<svg width="35" height="35" viewBox="0 0 35 35" fill="none" xmlns="http://www.w3.org/2000/svg">
<g filter="url(#filter0_b_664_391)">
<circle cx="17.5" cy="17.5" r="17.5" fill="#FDFCFC"/>
</g>
<path fill-rule="evenodd" clip-rule="evenodd" d="M18.1257 23.2592C18.5412 23.05 19.0441 22.7401 19.5959 22.362C21.0614 21.358 22.4749 20.1985 23.51 18.9107L25.8483 20.7901C24.5537 22.4009 22.8739 23.7528 21.2915 24.8369C20.6853 25.2522 20.059 25.6445 19.4751 25.9386C18.9465 26.2049 18.247 26.5 17.5603 26.5C16.8737 26.5 16.1742 26.2049 15.6456 25.9386C15.0617 25.6445 14.4353 25.2522 13.8292 24.8369C12.2468 23.7528 10.567 22.4009 9.27235 20.7901L11.6107 18.9107C12.6457 20.1985 14.0593 21.358 15.5248 22.362C16.0766 22.7401 16.5795 23.05 16.995 23.2592C17.1905 23.3577 17.3492 23.4261 17.4778 23.4683C17.513 23.4798 17.5404 23.4875 17.5603 23.4926C17.5803 23.4875 17.6076 23.4798 17.6429 23.4683C17.7715 23.4261 17.9302 23.3577 18.1257 23.2592ZM17.5603 10.6935C18.6368 9.80709 20.0578 9 21.6703 9C25.1099 9 28.1207 11.5526 28.1207 14.9611C28.1207 17.2177 27.1465 19.1749 25.8483 20.7901L23.51 18.9107C24.5421 17.6265 25.1207 16.3138 25.1207 14.9611C25.1207 13.4994 23.7586 12 21.6703 12C21.0558 12 20.2988 12.3248 19.4675 13.0093C18.3597 13.9216 16.761 13.9216 15.6532 13.0093C14.8219 12.3248 14.0648 12 13.4504 12C11.3621 12 10 13.4994 10 14.9611C10 16.3138 10.5786 17.6265 11.6107 18.9107L9.27235 20.7901C7.97421 19.1749 7 17.2177 7 14.9611C7 11.5526 10.0108 9 13.4504 9C15.0629 9 16.4839 9.80709 17.5603 10.6935Z" fill="#23292F"/>
<defs>
<filter id="filter0_b_664_391" x="-18" y="-18" width="71" height="71" filterUnits="userSpaceOnUse" color-interpolation-filters="sRGB">
<feFlood flood-opacity="0" result="BackgroundImageFix"/>
<feGaussianBlur in="BackgroundImageFix" stdDeviation="9"/>
<feComposite in2="SourceAlpha" operator="in" result="effect1_backgroundBlur_664_391"/>
<feBlend mode="normal" in="SourceGraphic" in2="effect1_backgroundBlur_664_391" result="shape"/>
</filter>
</defs>
</svg>
