<svg width="26" height="25" viewBox="0 0 26 25" fill="none" xmlns="http://www.w3.org/2000/svg">
<path fill-rule="evenodd" clip-rule="evenodd" d="M6.36567 3.31333C6.36567 2.48155 7.03995 1.80727 7.87172 1.80727H22.3299C23.1616 1.80727 23.8359 2.48155 23.8359 3.31333V10.5424C23.8359 11.3742 23.1616 12.0485 22.3299 12.0485H21.125C20.626 12.0485 20.2214 12.453 20.2214 12.9521C20.2214 13.4512 20.626 13.8557 21.125 13.8557H22.3299C24.1598 13.8557 25.6432 12.3723 25.6432 10.5424V3.31333C25.6432 1.48343 24.1598 0 22.3299 0H7.87172C6.04182 0 4.5584 1.48343 4.5584 3.31333V5.1206C4.5584 5.61966 4.96297 6.02423 5.46203 6.02423C5.9611 6.02423 6.36567 5.61966 6.36567 5.1206V3.31333ZM6.66688 10.5424C6.66688 11.8732 5.58802 12.9521 4.25719 12.9521C2.92635 12.9521 1.84749 11.8732 1.84749 10.5424C1.84749 9.21157 2.92635 8.13271 4.25719 8.13271C5.58802 8.13271 6.66688 9.21157 6.66688 10.5424ZM19.4774 9.82443C19.7472 9.40463 19.6257 8.84554 19.2059 8.57567C18.7861 8.30579 18.227 8.42733 17.9571 8.84714L13.2695 16.1391C12.7886 15.9801 12.2425 16.0299 11.7807 16.3238L7.87361 18.372V17.7696C7.87361 15.7733 6.25532 14.1551 4.25907 14.1551C2.26282 14.1551 0.644531 15.7733 0.644531 17.7696V24.9987H7.87361V22.2034C8.19096 22.1561 8.50427 22.0442 8.79443 21.8629L13.6464 19.2822C14.2277 18.9189 14.5227 18.269 14.4604 17.6286L19.4774 9.82443ZM9.38155 5.72114C9.38155 5.22207 9.78612 4.8175 10.2852 4.8175H19.924C20.423 4.8175 20.8276 5.22207 20.8276 5.72114C20.8276 6.2202 20.423 6.62477 19.924 6.62477H10.2852C9.78612 6.62477 9.38155 6.2202 9.38155 5.72114ZM10.2852 8.43204C9.78612 8.43204 9.38155 8.83661 9.38155 9.33567C9.38155 9.83474 9.78612 10.2393 10.2852 10.2393H15.1046C15.6036 10.2393 16.0082 9.83474 16.0082 9.33567C16.0082 8.83661 15.6036 8.43204 15.1046 8.43204H10.2852Z" fill="#23292F"/>
</svg>
