<svg width="26" height="25" viewBox="0 0 26 25" fill="none" xmlns="http://www.w3.org/2000/svg">
<path fill-rule="evenodd" clip-rule="evenodd" d="M1.85055 4.48668H9.98242C10.4003 5.96632 11.7585 7.05049 13.3697 7.05049C14.9808 7.05049 16.3391 5.96632 16.7569 4.48668H24.8888C25.4189 4.48668 25.8487 4.05623 25.8487 3.52525C25.8487 2.99426 25.4189 2.56382 24.8888 2.56382H16.7569C16.3391 1.08417 14.9808 0 13.3697 0C11.7585 0 10.4003 1.08417 9.98242 2.56382H1.85055C1.3204 2.56382 0.890625 2.99426 0.890625 3.52525C0.890625 4.05623 1.3204 4.48668 1.85055 4.48668ZM19.7692 8.97188C17.8253 8.97188 16.2494 10.5502 16.2494 12.4971C16.2494 14.4441 17.8253 16.0224 19.7692 16.0224C21.3803 16.0224 22.7386 14.9382 23.1564 13.4586H24.8888C25.4189 13.4586 25.8487 13.0281 25.8487 12.4971C25.8487 11.9661 25.4189 11.5357 24.8888 11.5357H23.1564C22.7386 10.0561 21.3803 8.97188 19.7692 8.97188ZM0.890625 12.4971C0.890625 11.9661 1.3204 11.5357 1.85055 11.5357H13.3697C13.8998 11.5357 14.3296 11.9661 14.3296 12.4971C14.3296 13.0281 13.8998 13.4586 13.3697 13.4586H1.85055C1.3204 13.4586 0.890625 13.0281 0.890625 12.4971ZM3.58292 22.4362H1.85055C1.3204 22.4362 0.890625 22.0057 0.890625 21.4748C0.890625 20.9438 1.3204 20.5133 1.85055 20.5133H3.58292C4.00076 19.0337 5.35904 17.9495 6.97015 17.9495C8.91405 17.9495 10.4899 19.5278 10.4899 21.4748C10.4899 23.4217 8.91405 25 6.97015 25C5.35904 25 4.00076 23.9158 3.58292 22.4362ZM12.4097 21.4748C12.4097 20.9438 12.8395 20.5133 13.3697 20.5133H24.8888C25.4189 20.5133 25.8487 20.9438 25.8487 21.4748C25.8487 22.0057 25.4189 22.4362 24.8888 22.4362H13.3697C12.8395 22.4362 12.4097 22.0057 12.4097 21.4748Z" fill="#28303F"/>
</svg>
