<svg width="26" height="25" viewBox="0 0 26 25" fill="none" xmlns="http://www.w3.org/2000/svg">
<path fill-rule="evenodd" clip-rule="evenodd" d="M1.1943 4.48668H9.32617C9.74401 5.96632 11.1023 7.05049 12.7134 7.05049C14.3245 7.05049 15.6828 5.96632 16.1006 4.48668H24.2325C24.7627 4.48668 25.1924 4.05623 25.1924 3.52525C25.1924 2.99426 24.7627 2.56382 24.2325 2.56382H16.1006C15.6828 1.08417 14.3245 0 12.7134 0C11.1023 0 9.74401 1.08417 9.32617 2.56382H1.1943C0.664148 2.56382 0.234375 2.99426 0.234375 3.52525C0.234375 4.05623 0.664148 4.48668 1.1943 4.48668ZM19.1129 8.97188C17.169 8.97188 15.5932 10.5502 15.5932 12.4971C15.5932 14.4441 17.169 16.0224 19.1129 16.0224C20.724 16.0224 22.0823 14.9382 22.5002 13.4586H24.2325C24.7627 13.4586 25.1924 13.0281 25.1924 12.4971C25.1924 11.9661 24.7627 11.5357 24.2325 11.5357H22.5002C22.0823 10.0561 20.724 8.97188 19.1129 8.97188ZM0.234375 12.4971C0.234375 11.9661 0.664148 11.5357 1.1943 11.5357H12.7134C13.2436 11.5357 13.6733 11.9661 13.6733 12.4971C13.6733 13.0281 13.2436 13.4586 12.7134 13.4586H1.1943C0.664148 13.4586 0.234375 13.0281 0.234375 12.4971ZM2.92667 22.4362H1.1943C0.664148 22.4362 0.234375 22.0057 0.234375 21.4748C0.234375 20.9438 0.664148 20.5133 1.1943 20.5133H2.92667C3.34451 19.0337 4.70279 17.9495 6.3139 17.9495C8.2578 17.9495 9.83363 19.5278 9.83363 21.4748C9.83363 23.4217 8.2578 25 6.3139 25C4.70279 25 3.34451 23.9158 2.92667 22.4362ZM11.7535 21.4748C11.7535 20.9438 12.1833 20.5133 12.7134 20.5133H24.2325C24.7627 20.5133 25.1924 20.9438 25.1924 21.4748C25.1924 22.0057 24.7627 22.4362 24.2325 22.4362H12.7134C12.1833 22.4362 11.7535 22.0057 11.7535 21.4748Z" fill="#28303F"/>
</svg>
