<svg width="24" height="25" viewBox="0 0 24 25" fill="none" xmlns="http://www.w3.org/2000/svg">
<path d="M4.07815 5.65233C4.07815 2.53064 6.44033 0 9.3542 0C12.268 1.68287e-05 14.6302 2.53065 14.6302 5.65233C14.6302 8.77402 12.268 11.3046 9.3542 11.3047C6.44033 11.3047 4.07815 8.77403 4.07815 5.65233Z" fill="#23292F"/>
<path d="M0.121094 19.7832C0.121094 16.6615 4.25489 14.1308 9.35417 14.1308C14.4535 14.1308 18.5873 16.6615 18.5873 19.7832C18.5873 25.3852 15.9033 25.1726 12.1929 24.8787C11.2986 24.8078 10.3446 24.7322 9.3542 24.7322C8.36377 24.7322 7.40977 24.8078 6.5154 24.8787C2.80505 25.1726 0.121094 25.3852 0.121094 19.7832Z" fill="#23292F"/>
<path d="M13.951 11.1473C14.462 11.39 16.0275 11.5249 16.6223 11.5249C18.9045 11.5249 20.7547 9.53956 20.7547 7.09056C20.7547 4.64157 18.9045 2.65626 16.6223 2.65625C16.5606 2.65625 15.4992 2.6577 15.4381 2.66058C16.4434 3.57068 17.0819 4.93143 17.0819 6.45192C17.0819 8.62953 15.7724 10.4795 13.951 11.1473Z" fill="#23292F"/>
<path d="M19.8187 22.2656C21.6561 22.2121 23.854 21.494 23.854 18.1764C23.854 15.7274 20.6162 13.742 16.6222 13.742C15.8847 13.742 14.173 13.8097 13.5027 13.9356C17.4817 14.2513 20.5553 16.3337 20.5553 18.8556C20.5553 20.5008 20.2916 21.5746 19.8187 22.2656Z" fill="#23292F"/>
</svg>
