<svg width="26" height="25" viewBox="0 0 26 25" fill="none" xmlns="http://www.w3.org/2000/svg">
<path fill-rule="evenodd" clip-rule="evenodd" d="M25.1211 12.5C25.1211 19.4036 19.5247 25 12.6211 25C5.71753 25 0.121094 19.4036 0.121094 12.5C0.121094 5.59644 5.71753 0 12.6211 0C19.5247 0 25.1211 5.59644 25.1211 12.5ZM12.6211 7.1875C11.7581 7.1875 11.0586 7.88705 11.0586 8.75C11.0586 9.26777 10.6389 9.6875 10.1211 9.6875C9.60333 9.6875 9.18359 9.26777 9.18359 8.75C9.18359 6.85152 10.7226 5.3125 12.6211 5.3125C14.5196 5.3125 16.0586 6.85152 16.0586 8.75C16.0586 9.43292 15.8585 10.072 15.5134 10.6083C15.2972 10.9442 15.0445 11.2649 14.8115 11.5545L14.6858 11.7103C14.4924 11.9496 14.3149 12.1693 14.1509 12.3947C13.7465 12.9506 13.5586 13.3684 13.5586 13.75V14.375C13.5586 14.8928 13.1389 15.3125 12.6211 15.3125C12.1033 15.3125 11.6836 14.8928 11.6836 14.375V13.75C11.6836 12.7509 12.1741 11.9247 12.6348 11.2916C12.8295 11.024 13.0428 10.7602 13.2367 10.5202L13.3506 10.3791C13.5821 10.0914 13.7792 9.83831 13.9366 9.59369C14.0929 9.35086 14.1836 9.06246 14.1836 8.75C14.1836 7.88705 13.484 7.1875 12.6211 7.1875ZM13.5586 17.5C13.5586 16.9822 13.1389 16.5625 12.6211 16.5625C12.1033 16.5625 11.6836 16.9822 11.6836 17.5V18.75C11.6836 19.2678 12.1033 19.6875 12.6211 19.6875C13.1389 19.6875 13.5586 19.2678 13.5586 18.75V17.5Z" fill="#28303F"/>
</svg>
