<svg width="26" height="25" viewBox="0 0 26 25" fill="none" xmlns="http://www.w3.org/2000/svg">
<path fill-rule="evenodd" clip-rule="evenodd" d="M25.7773 12.5C25.7773 19.4036 20.1809 25 13.2773 25C6.37378 25 0.777344 19.4036 0.777344 12.5C0.777344 5.59644 6.37378 0 13.2773 0C20.1809 0 25.7773 5.59644 25.7773 12.5ZM13.2773 7.1875C12.4144 7.1875 11.7148 7.88705 11.7148 8.75C11.7148 9.26777 11.2951 9.6875 10.7773 9.6875C10.2596 9.6875 9.83984 9.26777 9.83984 8.75C9.83984 6.85152 11.3789 5.3125 13.2773 5.3125C15.1758 5.3125 16.7148 6.85152 16.7148 8.75C16.7148 9.43292 16.5147 10.072 16.1696 10.6083C15.9535 10.9442 15.7007 11.2649 15.4677 11.5545L15.342 11.7103C15.1487 11.9496 14.9712 12.1693 14.8072 12.3947C14.4027 12.9506 14.2148 13.3684 14.2148 13.75V14.375C14.2148 14.8928 13.7951 15.3125 13.2773 15.3125C12.7596 15.3125 12.3398 14.8928 12.3398 14.375V13.75C12.3398 12.7509 12.8304 11.9247 13.291 11.2916C13.4857 11.024 13.699 10.7602 13.893 10.5202L14.0069 10.3791C14.2384 10.0914 14.4354 9.83831 14.5928 9.59369C14.7491 9.35086 14.8398 9.06246 14.8398 8.75C14.8398 7.88705 14.1403 7.1875 13.2773 7.1875ZM14.2148 17.5C14.2148 16.9822 13.7951 16.5625 13.2773 16.5625C12.7596 16.5625 12.3398 16.9822 12.3398 17.5V18.75C12.3398 19.2678 12.7596 19.6875 13.2773 19.6875C13.7951 19.6875 14.2148 19.2678 14.2148 18.75V17.5Z" fill="#28303F"/>
</svg>
