<svg width="30" height="25" viewBox="0 0 30 25" fill="none" xmlns="http://www.w3.org/2000/svg">
<path fill-rule="evenodd" clip-rule="evenodd" d="M2.99797 1.82904C2.57955 1.41062 2.57955 0.732233 2.99797 0.313814C3.41639 -0.104605 4.09478 -0.104605 4.5132 0.313814L27.3703 23.171C27.7888 23.5894 27.7888 24.2678 27.3703 24.6862C26.9519 25.1046 26.2735 25.1046 25.8551 24.6862L21.8169 20.6479C19.8037 21.7441 17.5556 22.5 15.1842 22.5C9.73342 22.5 4.93486 18.5067 2.14087 15.567C0.484292 13.824 0.484292 11.176 2.14087 9.433C3.32633 8.18573 4.87266 6.74877 6.67656 5.50763L2.99797 1.82904ZM11.4918 10.3229C11.1148 10.9609 10.8984 11.7052 10.8984 12.5C10.8984 14.8669 12.8172 16.7857 15.1842 16.7857C15.9789 16.7857 16.7232 16.5694 17.3613 16.1923L11.4918 10.3229ZM15.1842 2.5C20.6349 2.5 25.4335 6.49333 28.2274 9.433C29.884 11.176 29.884 13.824 28.2274 15.567C27.5988 16.2284 26.8686 16.9432 26.0524 17.6539L11.488 3.08949C12.673 2.71795 13.9108 2.5 15.1842 2.5Z" fill="#23292F"/>
</svg>
