<svg width="26" height="25" viewBox="0 0 26 25" fill="none" xmlns="http://www.w3.org/2000/svg">
<path fill-rule="evenodd" clip-rule="evenodd" d="M25.8984 12.5C25.8984 19.4036 20.302 25 13.3984 25C6.49488 25 0.898438 19.4036 0.898438 12.5C0.898438 5.59644 6.49488 0 13.3984 0C20.302 0 25.8984 5.59644 25.8984 12.5ZM14.6484 6.25C14.6484 6.94036 14.0888 7.5 13.3984 7.5C12.7081 7.5 12.1484 6.94036 12.1484 6.25C12.1484 5.55964 12.7081 5 13.3984 5C14.0888 5 14.6484 5.55964 14.6484 6.25ZM12.1484 9.0625C11.6307 9.0625 11.2109 9.48223 11.2109 10C11.2109 10.5178 11.6307 10.9375 12.1484 10.9375H12.4609V18.75C12.4609 19.2678 12.8807 19.6875 13.3984 19.6875C13.9162 19.6875 14.3359 19.2678 14.3359 18.75V10C14.3359 9.48223 13.9162 9.0625 13.3984 9.0625H12.1484Z" fill="#23292F"/>
</svg>
