<svg width="26" height="25" viewBox="0 0 26 25" fill="none" xmlns="http://www.w3.org/2000/svg">
<path fill-rule="evenodd" clip-rule="evenodd" d="M13.7594 22.246C13.4932 21.5134 13.348 20.7227 13.348 19.8981C13.348 16.1011 16.4261 13.0231 20.223 13.0231C20.9911 13.0231 21.7297 13.149 22.4195 13.3814C22.5518 12.6913 22.6211 11.9787 22.6211 11.25C22.6211 5.0368 17.5843 0 11.3711 0C5.15789 0 0.121094 5.0368 0.121094 11.25C0.121094 17.4632 5.15789 22.5 11.3711 22.5C12.1906 22.5 12.9897 22.4124 13.7594 22.246ZM21.8652 15.3126C23.7666 16.0204 25.1211 17.852 25.1211 20C25.1211 22.7614 22.8825 25 20.1211 25C17.9731 25 16.1415 23.6455 15.4337 21.7441C15.2316 21.2011 15.1211 20.6134 15.1211 20C15.1211 17.2386 17.3597 15 20.1211 15C20.7345 15 21.3222 15.1105 21.8652 15.3126ZM20.1211 16.5625C20.6389 16.5625 21.0586 16.9822 21.0586 17.5V19.0625H22.6211C23.1389 19.0625 23.5586 19.4822 23.5586 20C23.5586 20.5178 23.1389 20.9375 22.6211 20.9375H21.0586V22.5C21.0586 23.0178 20.6389 23.4375 20.1211 23.4375C19.6033 23.4375 19.1836 23.0178 19.1836 22.5V20.9375H17.6211C17.1033 20.9375 16.6836 20.5178 16.6836 20C16.6836 19.4822 17.1033 19.0625 17.6211 19.0625H19.1836V17.5C19.1836 16.9822 19.6033 16.5625 20.1211 16.5625ZM11.2557 4.5459C9.89292 4.5459 8.78816 5.65018 8.78816 7.01237C8.78816 8.37457 9.89292 9.47884 11.2557 9.47884C12.6185 9.47884 13.7232 8.37456 13.7232 7.01237C13.7232 5.65018 12.6185 4.54591 11.2557 4.5459ZM11.2557 10.7121C8.87082 10.7121 6.9375 11.8164 6.9375 13.1786C6.9375 15.6231 8.19275 15.5303 9.92803 15.402H9.92804L9.92806 15.402C10.3463 15.3711 10.7925 15.3381 11.2557 15.3381C11.7189 15.3381 12.165 15.3711 12.5833 15.402H12.5833H12.5833L12.5833 15.402C14.3186 15.5303 15.5739 15.6231 15.5739 13.1786C15.5739 11.8164 13.6405 10.7121 11.2557 10.7121Z" fill="#28303F"/>
</svg>
