<svg width="34" height="31" viewBox="0 0 34 31" fill="none" xmlns="http://www.w3.org/2000/svg">
<path d="M0 1.45396C0 0.650961 0.65096 0 1.45396 0H7.49349C8.29649 0 8.94745 0.65096 8.94745 1.45396V7.49349C8.94745 8.29649 8.29649 8.94745 7.49349 8.94745H1.45396C0.650961 8.94745 0 8.29649 0 7.49349V1.45396Z" fill="#23292F"/>
<path d="M0 12.0796C0 11.2766 0.65096 10.6257 1.45396 10.6257H7.49349C8.29649 10.6257 8.94745 11.2766 8.94745 12.0796V18.1191C8.94745 18.9221 8.29649 19.5731 7.49349 19.5731H1.45396C0.650961 19.5731 0 18.9221 0 18.1191V12.0796Z" fill="#23292F"/>
<path d="M0 22.7042C0 21.9012 0.65096 21.2502 1.45396 21.2502H7.49349C8.29649 21.2502 8.94745 21.9012 8.94745 22.7042V28.7437C8.94745 29.5467 8.29649 30.1976 7.49349 30.1976H1.45396C0.650961 30.1976 0 29.5467 0 28.7437V22.7042Z" fill="#23292F"/>
<path d="M10.0656 22.1449C10.0656 21.6508 10.4662 21.2502 10.9604 21.2502H28.7434C29.2376 21.2502 29.6382 21.6508 29.6382 22.1449V23.3752C29.6382 23.8694 29.2376 24.27 28.7434 24.27H10.9604C10.4662 24.27 10.0656 23.8694 10.0656 23.3752V22.1449Z" fill="#23292F"/>
<path d="M10.0656 11.5204C10.0656 11.0262 10.4662 10.6257 10.9604 10.6257H33.1053C33.5995 10.6257 34.0001 11.0262 34.0001 11.5204V12.7507C34.0001 13.2448 33.5995 13.6454 33.1053 13.6454H10.9604C10.4662 13.6454 10.0656 13.2448 10.0656 12.7507V11.5204Z" fill="#23292F"/>
<path d="M10.0656 5.36835C10.0656 4.8742 10.4662 4.47361 10.9604 4.47361H19.1249C19.6191 4.47361 20.0197 4.8742 20.0197 5.36835V6.59863C20.0197 7.09278 19.6191 7.49337 19.1249 7.49337H10.9604C10.4662 7.49337 10.0656 7.09278 10.0656 6.59863V5.36835Z" fill="#23292F"/>
<path d="M10.0656 15.9935C10.0656 15.4993 10.4662 15.0987 10.9604 15.0987H14.763C15.2572 15.0987 15.6578 15.4993 15.6578 15.9935V17.2237C15.6578 17.7179 15.2572 18.1185 14.763 18.1185H10.9604C10.4662 18.1185 10.0656 17.7179 10.0656 17.2237V15.9935Z" fill="#23292F"/>
<path d="M10.0656 26.6191C10.0656 26.1249 10.4662 25.7244 10.9604 25.7244H22.7039C23.198 25.7244 23.5986 26.1249 23.5986 26.6191V27.8494C23.5986 28.3435 23.198 28.7441 22.7039 28.7441H10.9604C10.4662 28.7441 10.0656 28.3435 10.0656 27.8494V26.6191Z" fill="#23292F"/>
<path d="M10.0656 0.894744C10.0656 0.40059 10.4662 0 10.9604 0H30.0855C30.5797 0 30.9803 0.400591 30.9803 0.894745V2.12502C30.9803 2.61917 30.5797 3.01976 30.0855 3.01976H10.9604C10.4662 3.01976 10.0656 2.61917 10.0656 2.12502V0.894744Z" fill="#23292F"/>
</svg>
