<svg width="21" height="25" viewBox="0 0 21 25" fill="none" xmlns="http://www.w3.org/2000/svg">
<path fill-rule="evenodd" clip-rule="evenodd" d="M6.16016 5.9375C6.16016 3.69384 7.979 1.875 10.2227 1.875C12.4663 1.875 14.2852 3.69384 14.2852 5.9375V7.5H6.16016V5.9375ZM4.28516 7.58775V5.9375C4.28516 2.65831 6.94347 0 10.2227 0C13.5018 0 16.1602 2.65831 16.1602 5.9375V7.58775C18.4735 8.02657 20.2227 10.059 20.2227 12.5V20C20.2227 22.7614 17.9841 25 15.2227 25H5.22266C2.46123 25 0.222656 22.7614 0.222656 20V12.5C0.222656 10.059 1.97185 8.02657 4.28516 7.58775ZM10.2227 14.0625C10.7404 14.0625 11.1602 14.4822 11.1602 15V17.5C11.1602 18.0178 10.7404 18.4375 10.2227 18.4375C9.70489 18.4375 9.28516 18.0178 9.28516 17.5V15C9.28516 14.4822 9.70489 14.0625 10.2227 14.0625Z" fill="#23292F"/>
</svg>
