<svg width="28" height="25" viewBox="0 0 28 25" fill="none" xmlns="http://www.w3.org/2000/svg">
<path fill-rule="evenodd" clip-rule="evenodd" d="M5.67665 0C2.6084 0 0.121094 2.48731 0.121094 5.55556V19.4444C0.121094 22.5127 2.6084 25 5.67665 25H22.3433C25.4116 25 27.8989 22.5127 27.8989 19.4444V5.55556C27.8989 2.48731 25.4116 0 22.3433 0H5.67665ZM6.25447 6.07767C5.77579 5.75855 5.12905 5.8879 4.80993 6.36657C4.49082 6.84525 4.62017 7.49199 5.09884 7.8111L10.3505 12.8554C12.5665 14.3328 15.4535 14.3328 17.6695 12.8554L22.9211 7.8111C23.3998 7.49199 23.5292 6.84525 23.21 6.36657C22.8909 5.8879 22.2442 5.75855 21.7655 6.07767L16.5138 11.122C14.9976 12.1328 13.0223 12.1328 11.5061 11.122L6.25447 6.07767Z" fill="#23292F"/>
</svg>
