<svg width="24" height="25" viewBox="0 0 24 25" fill="none" xmlns="http://www.w3.org/2000/svg">
<path fill-rule="evenodd" clip-rule="evenodd" d="M12.1055 0C7.56461 0 3.74366 3.45952 3.21746 8.04727L2.73247 12.2757C2.61196 13.3264 2.18081 14.3151 1.496 15.1112C0.0427777 16.8005 1.22224 19.4444 3.4291 19.4444H20.7818C22.9887 19.4444 24.1682 16.8005 22.7149 15.1112C22.0301 14.3151 21.599 13.3264 21.4785 12.2757L20.9935 8.04727C20.4673 3.45952 16.6463 0 12.1055 0ZM16.285 22.3221C15.6418 23.8883 14.0131 25.0005 12.1055 25.0005C10.1978 25.0005 8.56911 23.8883 7.92594 22.3221C7.89913 22.2568 7.88672 22.1867 7.88672 22.1162C7.88672 21.7915 8.15322 21.5283 8.48197 21.5283H15.729C16.0577 21.5283 16.3242 21.7915 16.3242 22.1162C16.3242 22.1867 16.3118 22.2568 16.285 22.3221Z" fill="#23292F"/>
</svg>
