<svg width="21" height="25" viewBox="0 0 21 25" fill="none" xmlns="http://www.w3.org/2000/svg">
<path d="M4.31188 5.65233C4.31188 2.53064 6.88586 0 10.061 0C13.2361 1.68287e-05 15.8101 2.53065 15.8101 5.65233C15.8101 8.77402 13.2361 11.3046 10.061 11.3047C6.88586 11.3047 4.31188 8.77403 4.31188 5.65233Z" fill="#23292F"/>
<path d="M0 19.7832C0 16.6615 4.50445 14.1308 10.061 14.1308C15.6175 14.1308 20.122 16.6615 20.122 19.7832C20.122 25.3852 17.1973 25.1726 13.1543 24.8787C12.1797 24.8078 11.1402 24.7322 10.061 24.7322C8.98177 24.7322 7.94222 24.8078 6.96766 24.8787C2.92462 25.1726 0 25.3852 0 19.7832Z" fill="#23292F"/>
</svg>
