<svg width="26" height="25" viewBox="0 0 26 25" fill="none" xmlns="http://www.w3.org/2000/svg">
<path d="M25.8984 22.2222V19.9362C25.8984 18.8004 25.2069 18.4774 24.1523 18.0556L21.3271 16.9255C19.9857 16.3889 18.457 16.2717 17.8109 17.5639L17.5651 18.0556C17.5651 18.0556 14.0929 17.3611 11.3151 14.5833C8.53733 11.8056 7.84288 8.33333 7.84288 8.33333L8.33457 8.08749C9.62674 7.4414 9.5095 5.91269 8.97296 4.57133L7.84288 1.74614C7.42104 0.691531 7.09808 0 5.96223 0H3.67622C2.14209 0 0.898438 1.24365 0.898438 2.77778C0.898438 15.0508 10.8477 25 23.1207 25C24.6548 25 25.8984 23.7563 25.8984 22.2222Z" fill="#23292F"/>
</svg>
