<svg width="21" height="25" viewBox="0 0 21 25" fill="none" xmlns="http://www.w3.org/2000/svg">
<path fill-rule="evenodd" clip-rule="evenodd" d="M20.8322 5.00004V16.6811C20.8322 18.5142 19.3462 20.0002 17.5131 20.0002H15.8698C16.244 19.2471 16.4544 18.3982 16.4544 17.5002C16.4544 14.3936 13.936 11.8752 10.8294 11.8752C7.72274 11.8752 5.20432 14.3936 5.20432 17.5002C5.20432 18.3982 5.41474 19.2471 5.78897 20.0002H4.15108C2.31802 20.0002 0.832031 18.5142 0.832031 16.6811V5.00004C0.832031 2.23859 3.07063 0 5.83207 0H15.8321C18.5936 0 20.8322 2.23859 20.8322 5.00004ZM5.21165 5.00194C5.21165 4.65825 5.49028 4.37962 5.83398 4.37962H15.8341C16.1778 4.37962 16.4564 4.65825 16.4564 5.00194C16.4564 5.34564 16.1778 5.62427 15.8341 5.62427H5.83398C5.49028 5.62427 5.21165 5.34564 5.21165 5.00194ZM5.83398 8.12814C5.49028 8.12814 5.21165 8.40676 5.21165 8.75046C5.21165 9.09416 5.49028 9.37278 5.83398 9.37278H10.834C11.1777 9.37278 11.4563 9.09416 11.4563 8.75046C11.4563 8.40676 11.1777 8.12814 10.834 8.12814H5.83398ZM13.335 20.2886C14.1002 19.6021 14.5816 18.6055 14.5816 17.4965C14.5816 15.4255 12.9026 13.7465 10.8315 13.7465C8.76046 13.7465 7.08152 15.4255 7.08152 17.4965C7.08152 18.6088 7.56577 19.608 8.33495 20.2948V24.9997L10.835 23.7497L13.335 24.9997V20.2886Z" fill="#23292F"/>
</svg>
