<svg width="33" height="25" viewBox="0 0 33 25" fill="none" xmlns="http://www.w3.org/2000/svg">
<path fill-rule="evenodd" clip-rule="evenodd" d="M13.0431 0.406764L30.591 9.17539C33.3323 10.5452 33.3323 14.4548 30.591 15.8246L13.0431 24.5932C9.92209 26.1528 6.56389 22.9457 7.98107 19.759L10.5379 14.0096C10.5872 13.8987 10.6308 13.786 10.6688 13.6719L17.022 13.6719C17.6692 13.6719 18.1939 13.1472 18.1939 12.5C18.1939 11.8528 17.6692 11.3281 17.022 11.3281L10.6688 11.3281C10.6309 11.214 10.5872 11.1013 10.5379 10.9904L7.98107 5.24101C6.56389 2.05429 9.9221 -1.1528 13.0431 0.406764ZM0.222656 9.37616C0.222656 8.72895 0.747323 8.20429 1.39453 8.20429H4.51953C5.16674 8.20429 5.69141 8.72895 5.69141 9.37616C5.69141 10.0234 5.16674 10.548 4.51953 10.548H1.39453C0.747323 10.548 0.222656 10.0234 0.222656 9.37616ZM1.39453 14.4513C0.747323 14.4513 0.222656 14.976 0.222656 15.6232C0.222656 16.2704 0.747323 16.7951 1.39453 16.7951H4.51953C5.16674 16.7951 5.69141 16.2704 5.69141 15.6232C5.69141 14.976 5.16674 14.4513 4.51953 14.4513H1.39453Z" fill="#23292F"/>
</svg>
