<svg width="26" height="25" viewBox="0 0 26 25" fill="none" xmlns="http://www.w3.org/2000/svg">
<path fill-rule="evenodd" clip-rule="evenodd" d="M3.87449 10.059C3.87449 6.17738 7.02113 3.03074 10.9027 3.03074C14.7843 3.03074 17.9309 6.17738 17.9309 10.059C17.9309 13.9405 14.7843 17.0872 10.9027 17.0872C7.02113 17.0872 3.87449 13.9405 3.87449 10.059ZM10.9027 0C5.3473 0 0.84375 4.50355 0.84375 10.059C0.84375 15.6144 5.3473 20.1179 10.9027 20.1179C13.133 20.1179 15.1951 19.3913 16.8632 18.1625L23.2568 24.5562C23.8486 25.1479 24.8081 25.1479 25.3999 24.5562C25.9917 23.9644 25.9917 23.0049 25.3999 22.4131L19.0063 16.0195C20.235 14.3514 20.9617 12.2893 20.9617 10.059C20.9617 4.50355 16.4581 0 10.9027 0ZM10.9027 19.3602C13.1984 19.3602 15.2999 18.5285 16.9222 17.15L16.9191 17.1469C15.2968 18.5255 13.1954 19.3572 10.8996 19.3572C8.33252 19.3572 6.0083 18.3172 4.32531 16.6356C6.00855 18.319 8.33403 19.3602 10.9027 19.3602ZM23.7906 24.0183L23.7926 24.0204C24.0885 24.3163 24.5682 24.3163 24.8641 24.0204C25.16 23.7245 25.16 23.2448 24.8641 22.9489L24.8611 22.9458C25.157 23.2417 25.157 23.7214 24.8611 24.0173C24.5655 24.3129 24.0865 24.3132 23.7906 24.0183ZM17.9937 16.0785C19.3723 14.4562 20.204 12.3547 20.204 10.059C20.204 7.4872 19.1602 5.15921 17.4732 3.4755C19.1584 5.15897 20.2009 7.48569 20.2009 10.0559C20.2009 12.3516 19.3692 14.4531 17.9907 16.0754L17.9937 16.0785ZM3.1168 10.059C3.1168 5.75893 6.60268 2.27305 10.9027 2.27305C13.0499 2.27305 14.994 3.14219 16.4025 4.54784C14.9938 3.14039 13.0483 2.26999 10.8996 2.26999C6.59961 2.26999 3.11374 5.75586 3.11374 10.0559C3.11374 12.2072 3.98624 14.1547 5.39668 15.5639C3.98804 14.1549 3.1168 12.2087 3.1168 10.059Z" fill="#23292F"/>
</svg>
