<svg width="43" height="43" viewBox="0 0 43 43" fill="none" xmlns="http://www.w3.org/2000/svg">
<path fill-rule="evenodd" clip-rule="evenodd" d="M34.4 0H8.6C3.85035 0 0 3.85035 0 8.6V34.4C0 39.1497 3.85035 43 8.6 43H34.4C39.1497 43 43 39.1497 43 34.4V8.6C43 3.85035 39.1497 0 34.4 0Z" fill="#4285F4"/>
<path fill-rule="evenodd" clip-rule="evenodd" d="M34.4 2H8.6C4.95492 2 2 4.95492 2 8.6V34.4C2 38.0451 4.95492 41 8.6 41H34.4C38.0451 41 41 38.0451 41 34.4V8.6C41 4.95492 38.0451 2 34.4 2ZM8.6 0H34.4C39.1497 0 43 3.85035 43 8.6V34.4C43 39.1497 39.1497 43 34.4 43H8.6C3.85035 43 0 39.1497 0 34.4V8.6C0 3.85035 3.85035 0 8.6 0Z" fill="#FDFCFC"/>
<path fill-rule="evenodd" clip-rule="evenodd" d="M33.0607 12.9393C33.6464 13.5251 33.6464 14.4749 33.0607 15.0607L18.7678 29.3536C17.7915 30.3299 16.2085 30.3299 15.2322 29.3536L9.93934 24.0607C9.35355 23.4749 9.35355 22.5251 9.93934 21.9393C10.5251 21.3536 11.4749 21.3536 12.0607 21.9393L17 26.8787L30.9393 12.9393C31.5251 12.3536 32.4749 12.3536 33.0607 12.9393Z" fill="#FDFCFC"/>
</svg>
