<svg width="26" height="25" viewBox="0 0 26 25" fill="none" xmlns="http://www.w3.org/2000/svg">
<path fill-rule="evenodd" clip-rule="evenodd" d="M11.9516 0H14.6031C16.0675 0 17.2546 1.11929 17.2546 2.5C17.2546 4.08002 18.9452 5.08456 20.3329 4.32913L20.4739 4.25241C21.7421 3.56206 23.3637 3.97175 24.0959 5.16748L25.4217 7.33254C26.1539 8.52827 25.7193 10.0572 24.4511 10.7476C23.0628 11.5034 23.0628 13.4966 24.4511 14.2524C25.7193 14.9427 26.1539 16.4717 25.4217 17.6675L24.0959 19.8325C23.3637 21.0283 21.7421 21.4379 20.4739 20.7476L20.3329 20.6709C18.9452 19.9154 17.2546 20.92 17.2546 22.5C17.2546 23.8807 16.0675 25 14.6031 25H11.9516C10.4872 25 9.30006 23.8807 9.30006 22.5C9.30006 20.92 7.60952 19.9155 6.22179 20.6709L6.08084 20.7476C4.81263 21.438 3.19098 21.0283 2.45879 19.8325L1.13302 17.6675C0.400825 16.4717 0.835344 14.9428 2.10355 14.2524C3.49194 13.4966 3.49194 11.5034 2.10355 10.7476C0.835346 10.0572 0.400827 8.52825 1.13303 7.33252L2.45879 5.16746C3.19099 3.97173 4.81263 3.56204 6.08084 4.2524L6.22179 4.32912C7.60952 5.08454 9.30006 4.08002 9.30006 2.5C9.30006 1.11929 10.4872 0 11.9516 0ZM13.2774 16.6667C15.5785 16.6667 17.444 14.8012 17.444 12.5C17.444 10.1988 15.5785 8.33333 13.2774 8.33333C10.9762 8.33333 9.11069 10.1988 9.11069 12.5C9.11069 14.8012 10.9762 16.6667 13.2774 16.6667Z" fill="#28303F"/>
</svg>
