<svg width="26" height="25" viewBox="0 0 26 25" fill="none" xmlns="http://www.w3.org/2000/svg">
<path fill-rule="evenodd" clip-rule="evenodd" d="M16.9572 1.2123e-06L24.1606 0C25.0967 -2.0205e-07 25.8555 0.758839 25.8555 1.69492L25.8555 8.89831C25.8555 9.83438 25.0967 10.5932 24.1606 10.5932C23.2245 10.5932 22.4657 9.83439 22.4657 8.89831L22.4657 5.78681L13.3555 14.9827C12.6936 15.6446 11.6204 15.6446 10.9585 14.9827C10.2966 14.3208 10.2966 13.2476 10.9585 12.5857L20.0687 3.38984L16.9572 3.38984C16.0211 3.38984 15.2623 2.631 15.2623 1.69492C15.2623 0.758842 16.0211 1.41435e-06 16.9572 1.2123e-06Z" fill="#28303F"/>
<path fill-rule="evenodd" clip-rule="evenodd" d="M0.855469 10.8757C0.855469 6.1953 4.64967 2.4011 9.33006 2.4011H13.3555C14.2916 2.4011 15.0504 3.15994 15.0504 4.09601C15.0504 5.03209 14.2916 5.79093 13.3555 5.79093H9.33006C6.52183 5.79093 4.2453 8.06745 4.2453 10.8757V16.5254C4.2453 19.3336 6.52182 21.6102 9.33006 21.6102H14.9798C17.788 21.6102 20.0645 19.3336 20.0645 16.5254V12.5C20.0645 11.5639 20.8234 10.8051 21.7595 10.8051C22.6955 10.8051 23.4544 11.5639 23.4544 12.5V16.5254C23.4544 21.2058 19.6602 25 14.9798 25H9.33006C4.64967 25 0.855469 21.2058 0.855469 16.5254V10.8757Z" fill="#28303F"/>
</svg>
