<svg width="37" height="25" viewBox="0 0 37 25" fill="none" xmlns="http://www.w3.org/2000/svg">
<path fill-rule="evenodd" clip-rule="evenodd" d="M34.6339 16.3338C36.7046 14.155 36.7046 10.8449 34.6339 8.66625C31.1414 4.99166 25.1432 0 18.3298 0C11.5164 0 5.51818 4.99167 2.0257 8.66625C-0.0450262 10.8449 -0.0450252 14.1551 2.0257 16.3338C5.51818 20.0083 11.5164 25 18.3298 25C25.1432 25 31.1414 20.0083 34.6339 16.3338ZM18.3298 17.8571C21.2885 17.8571 23.6869 15.4587 23.6869 12.5C23.6869 9.54133 21.2885 7.14286 18.3298 7.14286C15.3711 7.14286 12.9727 9.54133 12.9727 12.5C12.9727 15.4587 15.3711 17.8571 18.3298 17.8571Z" fill="#23292F"/>
</svg>
