<svg width="37" height="25" viewBox="0 0 37 25" fill="none" xmlns="http://www.w3.org/2000/svg">
<path fill-rule="evenodd" clip-rule="evenodd" d="M7.72179 25C7.81446 25 7.90501 24.9909 7.9926 24.9736C9.29748 24.9047 10.5806 24.3373 11.5281 23.2715L14.3154 20.1357C14.825 19.5624 14.7734 18.6845 14.2001 18.1749C13.6268 17.6653 12.7489 17.7169 12.2393 18.2902L9.45192 21.426C9.3466 21.5445 9.23216 21.6495 9.11068 21.7408V1.38889C9.11068 0.621827 8.48885 0 7.72179 0C6.95473 0 6.3329 0.621827 6.3329 1.38889V21.7408C6.21143 21.6494 6.09699 21.5445 5.99169 21.426L3.20432 18.2902C2.69471 17.7169 1.81683 17.6653 1.24352 18.1749C0.670211 18.6845 0.618571 19.5624 1.12818 20.1357L3.91555 23.2715C4.86295 24.3373 6.1461 24.9047 7.45096 24.9736C7.53856 24.9909 7.62911 25 7.72179 25ZM18.8361 0C18.069 0 17.4472 0.621827 17.4472 1.38889C17.4472 2.15595 18.069 2.77778 18.8361 2.77778H35.5028C36.2698 2.77778 36.8916 2.15595 36.8916 1.38889C36.8916 0.621827 36.2698 0 35.5028 0H18.8361ZM18.8361 11.1105C18.069 11.1105 17.4472 11.7323 17.4472 12.4994C17.4472 13.2664 18.069 13.8883 18.8361 13.8883H29.9472C30.7143 13.8883 31.3361 13.2664 31.3361 12.4994C31.3361 11.7323 30.7143 11.1105 29.9472 11.1105H18.8361ZM17.4472 23.6098C17.4472 22.8428 18.069 22.2209 18.8361 22.2209H24.3916C25.1587 22.2209 25.7805 22.8428 25.7805 23.6098C25.7805 24.3769 25.1587 24.9987 24.3916 24.9987H18.8361C18.069 24.9987 17.4472 24.3769 17.4472 23.6098Z" fill="#23292F"/>
</svg>
