<svg width="37" height="25" viewBox="0 0 37 25" fill="none" xmlns="http://www.w3.org/2000/svg">
<path fill-rule="evenodd" clip-rule="evenodd" d="M7.06554 25C7.15821 25 7.24876 24.9909 7.33635 24.9736C8.64123 24.9047 9.9244 24.3373 10.8718 23.2715L13.6592 20.1357C14.1688 19.5624 14.1171 18.6845 13.5438 18.1749C12.9705 17.6653 12.0926 17.7169 11.583 18.2902L8.79567 21.426C8.69035 21.5445 8.57591 21.6495 8.45443 21.7408V1.38889C8.45443 0.621827 7.8326 0 7.06554 0C6.29848 0 5.67665 0.621827 5.67665 1.38889V21.7408C5.55518 21.6494 5.44074 21.5445 5.33544 21.426L2.54807 18.2902C2.03846 17.7169 1.16058 17.6653 0.58727 18.1749C0.0139606 18.6845 -0.0376793 19.5624 0.471929 20.1357L3.2593 23.2715C4.2067 24.3373 5.48985 24.9047 6.79471 24.9736C6.88231 24.9909 6.97286 25 7.06554 25ZM18.1798 0C17.4128 0 16.791 0.621827 16.791 1.38889C16.791 2.15595 17.4128 2.77778 18.1798 2.77778H34.8465C35.6136 2.77778 36.2354 2.15595 36.2354 1.38889C36.2354 0.621827 35.6136 0 34.8465 0H18.1798ZM18.1798 11.1105C17.4128 11.1105 16.791 11.7323 16.791 12.4994C16.791 13.2664 17.4128 13.8883 18.1798 13.8883H29.291C30.058 13.8883 30.6798 13.2664 30.6798 12.4994C30.6798 11.7323 30.058 11.1105 29.291 11.1105H18.1798ZM16.791 23.6098C16.791 22.8428 17.4128 22.2209 18.1798 22.2209H23.7354C24.5025 22.2209 25.1243 22.8428 25.1243 23.6098C25.1243 24.3769 24.5025 24.9987 23.7354 24.9987H18.1798C17.4128 24.9987 16.791 24.3769 16.791 23.6098Z" fill="#23292F"/>
</svg>
