<svg width="26" height="25" viewBox="0 0 26 25" fill="none" xmlns="http://www.w3.org/2000/svg">
<path d="M10.8965 1.58926C11.9023 -0.529752 14.8086 -0.529756 15.8145 1.58926L17.5528 5.25147C17.9523 6.09293 18.7244 6.67617 19.6175 6.8111L23.5046 7.39837C25.7538 7.73817 26.6519 10.6119 25.0244 12.2614L22.2116 15.112C21.5653 15.767 21.2704 16.7107 21.423 17.6355L22.087 21.6607C22.4712 23.9897 20.12 25.7658 18.1083 24.6662L14.6315 22.7658C13.8326 22.3291 12.8783 22.3291 12.0794 22.7658L8.60267 24.6662C6.59096 25.7658 4.23975 23.9897 4.62395 21.6607L5.28795 17.6355C5.44052 16.7107 5.14561 15.767 4.49932 15.112L1.68656 12.2614C0.0590515 10.6119 0.957129 7.73817 3.20629 7.39837L7.09343 6.8111C7.98658 6.67617 8.75868 6.09294 9.1581 5.25147L10.8965 1.58926Z" fill="#28303F"/>
</svg>
