<svg width="29" height="27" viewBox="0 0 29 27" fill="none" xmlns="http://www.w3.org/2000/svg">
<path fill-rule="evenodd" clip-rule="evenodd" d="M14.1157 4.47554C13.9968 4.42837 13.8823 4.36712 13.7749 4.29181C10.7819 2.19457 6.58155 1.24416 3.45517 0.890885C1.90787 0.716043 0.644531 2.00812 0.644531 3.60228V19.4779C0.644531 21.072 1.90787 22.3646 3.45517 22.5394C6.58155 22.8927 10.7819 23.8431 13.7749 25.9403C13.8823 26.0157 13.9968 26.0769 14.1157 26.1241V4.47554ZM15.3641 26.1223C15.4814 26.0754 15.5943 26.0147 15.7005 25.9403C18.6934 23.8431 22.8938 22.8927 26.0202 22.5394C27.5675 22.3646 28.8308 21.072 28.8308 19.4779V3.60228C28.8308 2.00812 27.5675 0.716043 26.0202 0.890885C22.8938 1.24416 18.6934 2.19457 15.7005 4.29181C15.5943 4.36619 15.4814 4.42685 15.3641 4.47378V26.1223ZM4.25428 8.18762C4.30705 7.84694 4.626 7.61353 4.96668 7.66629C6.78135 7.94733 8.8172 8.41606 10.7335 9.15711C11.0551 9.28145 11.2149 9.64291 11.0906 9.96445C10.9663 10.286 10.6048 10.4459 10.2833 10.3215C8.47275 9.62139 6.5287 9.17152 4.77562 8.90002C4.43493 8.84726 4.20152 8.52831 4.25428 8.18762ZM4.96668 13.3018C4.626 13.249 4.30705 13.4824 4.25428 13.8231C4.20152 14.1638 4.43493 14.4828 4.77562 14.5355C5.66001 14.6725 6.59459 14.8551 7.53707 15.0929C7.87134 15.1772 8.21069 14.9746 8.29503 14.6403C8.37936 14.306 8.17675 13.9667 7.84248 13.8824C6.85787 13.6339 5.88477 13.444 4.96668 13.3018Z" fill="#23292F"/>
</svg>
