<svg width="22" height="25" viewBox="0 0 22 25" fill="none" xmlns="http://www.w3.org/2000/svg">
<path fill-rule="evenodd" clip-rule="evenodd" d="M18.8047 11.6885V4.71484H20.7066V11.6885C20.7066 12.2137 20.2808 12.6395 19.7556 12.6395C19.2304 12.6395 18.8047 12.2137 18.8047 11.6885Z" fill="#23292F"/>
<path d="M15.6318 9.78428V5.98047H5.48828V9.78428C5.48828 12.5853 7.75898 14.856 10.56 14.856C13.3611 14.856 15.6318 12.5853 15.6318 9.78428Z" fill="#23292F"/>
<path d="M0.454615 4.13366L9.0177 0.327845C10.0012 -0.109282 11.1239 -0.109282 12.1074 0.327845L20.6705 4.13366C21.1725 4.35676 21.1725 5.06921 20.6705 5.29232L12.1074 9.09813C11.1239 9.53526 10.0012 9.53526 9.0177 9.09813L0.454615 5.29232C-0.0473717 5.06921 -0.0473717 4.35676 0.454615 4.13366Z" fill="#23292F"/>
<path d="M13.4811 16.628L11.4669 18.6647C10.9706 19.1665 10.1601 19.1665 9.66385 18.6647L7.64969 16.628C7.33855 16.3134 6.88431 16.1793 6.45979 16.3041C2.90306 17.35 0.421875 19.7133 0.421875 22.4611C0.421875 23.8616 1.55723 24.9969 2.95775 24.9969H18.173C19.5735 24.9969 20.7089 23.8616 20.7089 22.4611C20.7089 19.7133 18.2277 17.35 14.671 16.3041C14.2465 16.1793 13.7922 16.3134 13.4811 16.628Z" fill="#23292F"/>
</svg>
