<svg width="26" height="25" viewBox="0 0 26 25" fill="none" xmlns="http://www.w3.org/2000/svg">
<path d="M19.9829 16.8355C19.9829 15.6711 20.939 14.7272 22.1184 14.7272C23.2978 14.7272 24.2539 15.6711 24.2539 16.8355C24.2539 17.9999 23.2978 18.9438 22.1184 18.9438C20.939 18.9438 19.9829 17.9999 19.9829 16.8355Z" fill="#23292F"/>
<path d="M18.3813 22.1062C18.3813 20.9418 20.0545 19.9979 22.1184 19.9979C24.1823 19.9979 25.8555 20.9418 25.8555 22.1062C25.8555 24.1957 24.7691 24.1164 23.2674 24.0067C22.9054 23.9803 22.5193 23.9521 22.1184 23.9521C21.7175 23.9521 21.3314 23.9803 20.9694 24.0067C19.4676 24.1164 18.3813 24.1957 18.3813 22.1062Z" fill="#23292F"/>
<path d="M2.63998 2.10827C2.63998 0.943905 3.59607 0 4.77546 0C5.95483 6.27696e-06 6.91091 0.943909 6.91091 2.10827C6.91091 3.27263 5.95483 4.21653 4.77546 4.21654C3.59607 4.21654 2.63998 3.27263 2.63998 2.10827Z" fill="#23292F"/>
<path d="M1.03837 7.37895C1.03837 6.21459 2.71152 5.27068 4.77545 5.27068C6.83938 5.27068 8.51252 6.21459 8.51252 7.37895C8.51252 9.46845 7.42619 9.38915 5.92443 9.27952C5.56244 9.25309 5.17631 9.2249 4.77546 9.2249C4.37458 9.2249 3.98845 9.25309 3.62646 9.27952C2.1247 9.38915 1.03837 9.46845 1.03837 7.37895Z" fill="#23292F"/>
<path fill-rule="evenodd" clip-rule="evenodd" d="M15.4058 23.917C15.4389 24.4678 15.028 24.9416 14.4879 24.9754C12.8014 25.0809 11.111 24.8465 9.51323 24.2858C7.91548 23.725 6.44167 22.8488 5.17595 21.7071C3.91023 20.5654 2.87739 19.1807 2.1364 17.6319C1.39542 16.0831 0.960789 14.4007 0.857339 12.6806C0.824215 12.1299 1.23513 11.656 1.77515 11.6223C2.31516 11.5885 2.77979 12.0076 2.81291 12.5583C2.90061 14.0165 3.26905 15.4427 3.89721 16.7557C4.52537 18.0686 5.40095 19.2425 6.47394 20.2103C7.54693 21.1782 8.79632 21.921 10.1508 22.3964C11.5053 22.8717 12.9383 23.0704 14.368 22.981C14.908 22.9472 15.3726 23.3663 15.4058 23.917Z" fill="#23292F"/>
<path fill-rule="evenodd" clip-rule="evenodd" d="M24.2819 12.4426C24.8173 12.3635 25.1885 11.8567 25.111 11.3106C24.8688 9.60509 24.2995 7.96493 23.4358 6.48378C22.572 5.00263 21.4307 3.70949 20.077 2.67819C18.7232 1.64689 17.1835 0.897633 15.5458 0.473191C13.9081 0.0487497 12.2045 -0.0425622 10.5322 0.204471C9.99678 0.283566 9.62559 0.790373 9.70314 1.33645C9.7807 1.88253 10.2776 2.2611 10.8131 2.182C12.2307 1.97258 13.6749 2.04999 15.0633 2.4098C16.4516 2.76962 17.7568 3.40479 18.9045 4.27906C20.0521 5.15332 21.0196 6.24956 21.7518 7.50518C22.4841 8.7608 22.9666 10.1512 23.172 11.597C23.2495 12.1431 23.7465 12.5217 24.2819 12.4426Z" fill="#23292F"/>
</svg>
