<svg width="21" height="25" viewBox="0 0 21 25" fill="none" xmlns="http://www.w3.org/2000/svg">
<g clip-path="url(#clip0_599_415)">
<path d="M17.4018 23.9984C16.0724 25.3134 14.6057 25.1084 13.2076 24.4884C11.7212 23.8559 10.3624 23.8159 8.79263 24.4884C6.83779 25.3484 5.80028 25.0984 4.62296 23.9984C-2.024 17.0234 -1.0429 6.39844 6.51158 5.99844C8.34378 6.09844 9.62657 7.03093 10.7058 7.10843C12.3099 6.77593 13.8453 5.82344 15.5622 5.94844C17.625 6.11844 19.1678 6.94844 20.1979 8.44093C15.9547 11.0409 16.9603 16.7409 20.8577 18.3409C20.0777 20.4284 19.077 22.4909 17.3993 24.0159L17.4018 23.9984ZM10.5586 5.92344C10.3599 2.82344 12.825 0.273437 15.6603 0.0234375C16.0503 3.59844 12.4718 6.27344 10.5586 5.92344Z" fill="#23292F"/>
</g>
<defs>
<clipPath id="clip0_599_415">
<rect width="20.6522" height="25" fill="white" transform="translate(0.183594)"/>
</clipPath>
</defs>
</svg>
