<svg width="26" height="25" viewBox="0 0 26 25" fill="none" xmlns="http://www.w3.org/2000/svg">
<g clip-path="url(#clip0_599_416)">
<path d="M25.0773 12.7861C25.0773 11.9363 25.0092 11.082 24.8638 10.2461H13.1992V15.0596H19.879C19.6018 16.6121 18.7111 17.9854 17.407 18.8581V21.9814H21.3921C23.7323 19.8042 25.0773 16.5891 25.0773 12.7861Z" fill="#4285F4"/>
<path d="M13.1995 24.9993C16.5349 24.9993 19.3476 23.8923 21.397 21.9816L17.4118 18.8583C16.3031 19.6208 14.8717 20.0525 13.2041 20.0525C9.97781 20.0525 7.2423 17.8525 6.26079 14.8945H2.14844V18.1143C4.24778 22.3353 8.52372 24.9993 13.1995 24.9993V24.9993Z" fill="#34A853"/>
<path d="M6.25534 14.8963C5.73732 13.3439 5.73732 11.6628 6.25534 10.1104V6.89062H2.14753C0.393532 10.4227 0.393532 14.584 2.14753 18.1161L6.25534 14.8963V14.8963Z" fill="#FBBC04"/>
<path d="M13.1995 4.94756C14.9626 4.92 16.6666 5.59059 17.9435 6.82153L21.4742 3.25273C19.2386 1.13073 16.2713 -0.0359021 13.1995 0.00084236C8.52372 0.00084236 4.24778 2.66481 2.14844 6.89042L6.25624 10.1102C7.23321 7.14764 9.97326 4.94756 13.1995 4.94756V4.94756Z" fill="#EA4335"/>
</g>
<defs>
<clipPath id="clip0_599_416">
<rect width="24.2424" height="25" fill="white" transform="translate(0.835938)"/>
</clipPath>
</defs>
</svg>
