<svg width="31" height="31" viewBox="0 0 31 31" fill="none" xmlns="http://www.w3.org/2000/svg">
<path d="M0 15.5C0 6.93959 6.93959 0 15.5 0C24.0604 0 31 6.93959 31 15.5C31 24.0604 24.0604 31 15.5 31C6.93959 31 0 24.0604 0 15.5Z" fill="#FDFCFC"/>
<path d="M15.7143 14.4286C17.4895 14.4286 18.9286 12.9895 18.9286 11.2143C18.9286 9.43908 17.4895 8 15.7143 8C13.9391 8 12.5 9.43908 12.5 11.2143C12.5 12.9895 13.9391 14.4286 15.7143 14.4286Z" fill="#23292F"/>
<path d="M15.7143 23C19.2647 23 22.1429 21.5609 22.1429 19.7857C22.1429 18.0105 19.2647 16.5714 15.7143 16.5714C12.1639 16.5714 9.28571 18.0105 9.28571 19.7857C9.28571 21.5609 12.1639 23 15.7143 23Z" fill="#23292F"/>
<path d="M9.69463 16.5918C7.04856 16.755 5 17.883 5 19.2501C5 20.3772 6.39231 21.3417 8.36389 21.7371C7.92332 21.1406 7.67857 20.4804 7.67857 19.7858C7.67857 18.5607 8.4401 17.4424 9.69463 16.5918Z" fill="#23292F"/>
<path d="M23.7501 19.7858C23.7501 20.4804 23.5053 21.1406 23.0648 21.7371C25.0363 21.3417 26.4286 20.3772 26.4286 19.2501C26.4286 17.883 24.3801 16.755 21.734 16.5918C22.9885 17.4424 23.7501 18.5607 23.7501 19.7858Z" fill="#23292F"/>
<path d="M19.6981 13.9308C20.2266 13.1572 20.5357 12.2218 20.5357 11.2143C20.5357 10.8799 20.5016 10.5535 20.4369 10.2384C20.6374 10.1763 20.8505 10.1429 21.0714 10.1429C22.2549 10.1429 23.2143 11.1022 23.2143 12.2857C23.2143 13.4692 22.2549 14.4286 21.0714 14.4286C20.5489 14.4286 20.07 14.2415 19.6981 13.9308Z" fill="#23292F"/>
<path d="M10.3571 10.1429C10.5781 10.1429 10.7912 10.1763 10.9917 10.2384C10.9269 10.5535 10.8929 10.8799 10.8929 11.2143C10.8929 12.2218 11.2019 13.1572 11.7304 13.9308C11.3585 14.2415 10.8797 14.4286 10.3571 14.4286C9.17368 14.4286 8.21429 13.4692 8.21429 12.2857C8.21429 11.1022 9.17368 10.1429 10.3571 10.1429Z" fill="#23292F"/>
</svg>
