<svg width="31" height="31" viewBox="0 0 31 31" fill="none" xmlns="http://www.w3.org/2000/svg">
<path d="M0 15.5C0 6.93959 6.93959 0 15.5 0C24.0604 0 31 6.93959 31 15.5C31 24.0604 24.0604 31 15.5 31C6.93959 31 0 24.0604 0 15.5Z" fill="#FDFCFC"/>
<path d="M15.5 14.6667C17.3936 14.6667 18.9286 13.1743 18.9286 11.3333C18.9286 9.49238 17.3936 8 15.5 8C13.6065 8 12.0714 9.49238 12.0714 11.3333C12.0714 13.1743 13.6065 14.6667 15.5 14.6667Z" fill="#23292F"/>
<path d="M15.5 23C18.8137 23 21.5 21.5076 21.5 19.6667C21.5 17.8257 18.8137 16.3333 15.5 16.3333C12.1863 16.3333 9.5 17.8257 9.5 19.6667C9.5 21.5076 12.1863 23 15.5 23Z" fill="#23292F"/>
</svg>
