<svg width="31" height="31" viewBox="0 0 31 31" fill="none" xmlns="http://www.w3.org/2000/svg">
<path d="M0 15.5C0 6.93959 6.93959 0 15.5 0C24.0604 0 31 6.93959 31 15.5C31 24.0604 24.0604 31 15.5 31C6.93959 31 0 24.0604 0 15.5Z" fill="#FDFCFC"/>
<path d="M13.4 8.6C13.4 9.48366 12.6837 10.2 11.8 10.2C10.9163 10.2 10.2 9.48366 10.2 8.6C10.2 7.71634 10.9163 7 11.8 7C12.6837 7 13.4 7.71634 13.4 8.6Z" fill="#23292F"/>
<path d="M14.2 11.8C14.2 12.6837 13.1255 13.4 11.8 13.4C10.4745 13.4 9.4 12.6837 9.4 11.8C9.4 10.9163 10.4745 10.2 11.8 10.2C13.1255 10.2 14.2 10.9163 14.2 11.8Z" fill="#23292F"/>
<path d="M20.6 19.8C21.4837 19.8 22.2 19.0837 22.2 18.2C22.2 17.3163 21.4837 16.6 20.6 16.6C19.7163 16.6 19 17.3163 19 18.2C19 19.0837 19.7163 19.8 20.6 19.8Z" fill="#23292F"/>
<path d="M15.2 7.8C15.2 7.46863 15.4686 7.2 15.8 7.2C20.1078 7.2 23.6 10.6922 23.6 15C23.6 15.3314 23.3314 15.6 23 15.6C22.6686 15.6 22.4 15.3314 22.4 15C22.4 11.3549 19.4451 8.4 15.8 8.4C15.4686 8.4 15.2 8.13137 15.2 7.8Z" fill="#23292F"/>
<path d="M8.6 14.4C8.93137 14.4 9.2 14.6686 9.2 15C9.2 18.6451 12.1549 21.6 15.8 21.6C16.1314 21.6 16.4 21.8686 16.4 22.2C16.4 22.5314 16.1314 22.8 15.8 22.8C11.4922 22.8 8 19.3078 8 15C8 14.6686 8.26863 14.4 8.6 14.4Z" fill="#23292F"/>
<path d="M20.6 23C21.9255 23 23 22.2837 23 21.4C23 20.5163 21.9255 19.8 20.6 19.8C19.2745 19.8 18.2 20.5163 18.2 21.4C18.2 22.2837 19.2745 23 20.6 23Z" fill="#23292F"/>
</svg>
