<svg width="24" height="20" viewBox="0 0 24 20" fill="none" xmlns="http://www.w3.org/2000/svg">
<path d="M16.0019 9.06435C16.9775 8.10347 17.5809 6.77603 17.5809 5.30978C17.5809 2.37727 15.1672 0 12.1897 0C9.21227 0 6.79857 2.37727 6.79857 5.30978C6.79857 6.83896 7.45491 8.21717 8.50527 9.18604C8.58793 9.26229 8.67303 9.336 8.76045 9.40706C9.69236 10.1645 10.8871 10.6196 12.1897 10.6196C13.6448 10.6196 14.9653 10.0518 15.9352 9.12891C15.9576 9.10758 15.9798 9.08606 16.0019 9.06435Z" fill="#23292F"/>
<path d="M19.2487 10.5816C25.7954 15.1808 25.8218 20.4137 17.7945 19.9446H12.1898L5.92305 19.9724C-2.11001 20.4267 -1.5345 15.1836 5.01612 10.5816C5.91517 9.95001 6.77526 10.0898 7.69279 10.4696C7.71466 10.4787 7.73656 10.4879 7.75849 10.4972C8.07257 10.6306 8.39361 10.7906 8.72544 10.9559C8.72544 10.9559 8.72543 10.9559 8.72544 10.9559C9.74217 11.4624 10.8602 12.0193 12.1897 12.0193C13.5246 12.0193 14.6245 11.4579 15.62 10.9498C16.0109 10.7502 16.3857 10.5589 16.7523 10.4131C16.7639 10.4085 16.7754 10.4039 16.7869 10.3994C17.6177 10.075 18.4075 9.99067 19.2487 10.5816Z" fill="#23292F"/>
</svg>
