<svg width="18" height="17" viewBox="0 0 18 17" fill="none" xmlns="http://www.w3.org/2000/svg">
<path fill-rule="evenodd" clip-rule="evenodd" d="M1.5747 3.05128H7.10499C7.38915 4.05755 8.31289 4.79487 9.40857 4.79487C10.5042 4.79487 11.428 4.05755 11.7121 3.05128H17.2424C17.603 3.05128 17.8953 2.75855 17.8953 2.39744C17.8953 2.03633 17.603 1.74359 17.2424 1.74359H11.7121C11.428 0.737318 10.5042 0 9.40857 0C8.31289 0 7.38915 0.737318 7.10499 1.74359H1.5747C1.21415 1.74359 0.921875 2.03633 0.921875 2.39744C0.921875 2.75855 1.21415 3.05128 1.5747 3.05128ZM13.7607 6.10156C12.4387 6.10156 11.367 7.17493 11.367 8.499C11.367 9.82307 12.4387 10.8964 13.7607 10.8964C14.8564 10.8964 15.7801 10.1591 16.0643 9.15284H17.2424C17.603 9.15284 17.8953 8.86011 17.8953 8.499C17.8953 8.13789 17.603 7.84515 17.2424 7.84515H16.0643C15.7801 6.83888 14.8564 6.10156 13.7607 6.10156ZM0.921875 8.499C0.921875 8.13789 1.21415 7.84515 1.5747 7.84515H9.40857C9.76911 7.84515 10.0614 8.13789 10.0614 8.499C10.0614 8.86011 9.76911 9.15284 9.40857 9.15284H1.5747C1.21415 9.15284 0.921875 8.86011 0.921875 8.499ZM2.75284 15.2583H1.5747C1.21415 15.2583 0.921875 14.9656 0.921875 14.6045C0.921875 14.2434 1.21415 13.9506 1.5747 13.9506H2.75284C3.037 12.9443 3.96074 12.207 5.05642 12.207C6.37841 12.207 7.4501 13.2804 7.4501 14.6045C7.4501 15.9285 6.37841 17.0019 5.05642 17.0019C3.96074 17.0019 3.037 16.2646 2.75284 15.2583ZM8.75575 14.6045C8.75575 14.2434 9.04803 13.9506 9.40857 13.9506H17.2424C17.603 13.9506 17.8953 14.2434 17.8953 14.6045C17.8953 14.9656 17.603 15.2583 17.2424 15.2583H9.40857C9.04803 15.2583 8.75575 14.9656 8.75575 14.6045Z" fill="#28303F"/>
</svg>
