<svg width="17" height="12" viewBox="0 0 17 12" fill="none" xmlns="http://www.w3.org/2000/svg">
<path fill-rule="evenodd" clip-rule="evenodd" d="M3.26923 11.7692C3.31286 11.7692 3.35549 11.765 3.39672 11.7568C4.01102 11.7244 4.61509 11.4573 5.0611 10.9555L6.37331 9.47927C6.61322 9.20937 6.58891 8.7961 6.31901 8.55619C6.04912 8.31628 5.63584 8.34059 5.39593 8.61049L4.08372 10.0867C4.03414 10.1425 3.98027 10.1919 3.92308 10.2349V0.653846C3.92308 0.292737 3.63034 0 3.26923 0C2.90812 0 2.61538 0.292737 2.61538 0.653846V10.2349C2.5582 10.1919 2.50433 10.1425 2.45475 10.0867L1.14254 8.61049C0.902636 8.34059 0.489358 8.31628 0.219461 8.55619C-0.050435 8.7961 -0.0747455 9.20937 0.165162 9.47927L1.47737 10.9555C1.92338 11.4573 2.52745 11.7244 3.14174 11.7568C3.18297 11.765 3.2256 11.7692 3.26923 11.7692ZM8.5015 0C8.14039 0 7.84766 0.292737 7.84766 0.653846C7.84766 1.01496 8.14039 1.30769 8.5015 1.30769H16.3477C16.7088 1.30769 17.0015 1.01496 17.0015 0.653846C17.0015 0.292737 16.7088 0 16.3477 0H8.5015ZM8.5015 5.23047C8.14039 5.23047 7.84766 5.52321 7.84766 5.88432C7.84766 6.24542 8.14039 6.53816 8.5015 6.53816H13.7323C14.0934 6.53816 14.3861 6.24542 14.3861 5.88432C14.3861 5.52321 14.0934 5.23047 13.7323 5.23047H8.5015ZM7.84766 11.1148C7.84766 10.7537 8.14039 10.4609 8.5015 10.4609H11.1169C11.478 10.4609 11.7707 10.7537 11.7707 11.1148C11.7707 11.4759 11.478 11.7686 11.1169 11.7686H8.5015C8.14039 11.7686 7.84766 11.4759 7.84766 11.1148Z" fill="#23292F"/>
</svg>
