<svg width="19" height="19" viewBox="0 0 19 19" fill="none" xmlns="http://www.w3.org/2000/svg">
<path d="M9.47834 18.3019C8.59599 18.3019 8.00775 17.7137 8.00775 16.8313L8.00775 2.12543C8.00775 1.24308 8.59599 0.654846 9.47834 0.654846C10.3607 0.654846 10.9489 1.24308 10.9489 2.12543V16.8313C10.9489 17.7137 10.3607 18.3019 9.47834 18.3019Z" fill="#FDFCFC"/>
<path d="M16.8313 10.9489H2.12543C1.24308 10.9489 0.654846 10.3607 0.654846 9.47834C0.654846 8.59599 1.24308 8.00775 2.12543 8.00775L16.8313 8.00775C17.7137 8.00775 18.3019 8.59599 18.3019 9.47834C18.3019 10.3607 17.7137 10.9489 16.8313 10.9489Z" fill="#FDFCFC"/>
</svg>
