<svg width="18" height="18" viewBox="0 0 18 18" fill="none" xmlns="http://www.w3.org/2000/svg">
<g filter="url(#filter0_b_240_164)">
<path d="M18 9.00008C18 13.9706 13.9706 18 9 18C4.02944 18 0 13.9706 0 9.00008C0 4.02957 4.02944 0.000175476 9 0.000175476C13.9706 0.000175476 18 4.02957 18 9.00008Z" fill="#E6373A"/>
</g>
<path d="M8.98446 15.3373C8.34917 15.3373 7.92564 14.9138 7.92563 14.2785L7.92553 3.69035C7.92552 3.05506 8.34904 2.63153 8.98433 2.63153C9.61962 2.63153 10.0432 3.05506 10.0432 3.69035L10.0433 14.2785C10.0433 14.9138 9.61975 15.3373 8.98446 15.3373Z" fill="#FDFCFC"/>
<path d="M14.2785 10.0432L3.69032 10.0432C3.05503 10.0432 2.6315 9.61971 2.6315 8.98442C2.63149 8.34913 3.05501 7.9256 3.6903 7.9256L14.2785 7.9256C14.9138 7.9256 15.3373 8.34913 15.3373 8.98442C15.3373 9.61971 14.9138 10.0432 14.2785 10.0432Z" fill="#FDFCFC"/>
<defs>
<filter id="filter0_b_240_164" x="-26" y="-25.9998" width="70" height="69.9998" filterUnits="userSpaceOnUse" color-interpolation-filters="sRGB">
<feFlood flood-opacity="0" result="BackgroundImageFix"/>
<feGaussianBlur in="BackgroundImage" stdDeviation="13"/>
<feComposite in2="SourceAlpha" operator="in" result="effect1_backgroundBlur_240_164"/>
<feBlend mode="normal" in="SourceGraphic" in2="effect1_backgroundBlur_240_164" result="shape"/>
</filter>
</defs>
</svg>
