<svg width="21" height="26" viewBox="0 0 21 26" fill="none" xmlns="http://www.w3.org/2000/svg">
<g clip-path="url(#clip0_39_26)">
<path d="M17.5084 24.4042C16.1566 25.7413 14.6651 25.5329 13.2435 24.9024C11.7321 24.2593 10.3504 24.2186 8.75421 24.9024C6.76645 25.7769 5.71146 25.5227 4.51431 24.4042C-2.2446 17.3117 -1.24697 6.50776 6.43474 6.10102C8.2978 6.2027 9.60219 7.15091 10.6996 7.22971C12.3307 6.89161 13.892 5.92307 15.6378 6.05018C17.7353 6.22304 19.3041 7.06702 20.3516 8.58466C16.0369 11.2284 17.0594 17.0244 21.0225 18.6514C20.2294 20.774 19.2118 22.8713 17.5059 24.422L17.5084 24.4042ZM10.5499 6.02476C10.3479 2.87255 12.8545 0.279601 15.7376 0.0253906C16.1341 3.6606 12.4953 6.38065 10.5499 6.02476Z" fill="#23292F"/>
</g>
<defs>
<clipPath id="clip0_39_26">
<rect width="21" height="25.4211" fill="white"/>
</clipPath>
</defs>
</svg>
