<svg width="24" height="20" viewBox="0 0 24 20" fill="none" xmlns="http://www.w3.org/2000/svg">
<path d="M3.63022 0.0870557C10.4564 1.75871 14.2673 2.42008 21.0188 2.76894C22.2921 2.83473 23.6763 3.62796 23.9207 4.76074C24.263 5.86669 23.4501 7.26186 22.3795 7.96974C16.7029 11.7233 13.7258 14.2443 8.63132 19.1817C6.58427 21.1656 3.2181 19.2657 3.66566 16.4372L4.47312 11.3342C4.48869 11.2357 4.49944 11.1371 4.50544 11.0385L9.47795 9.67627C9.97334 9.54055 10.2728 9.03243 10.1601 8.53052L10.1628 8.52978C10.015 8.03749 9.50715 7.75053 9.01179 7.88624L4.03953 9.24841C3.98614 9.16614 3.92859 9.08619 3.86696 9.00889L0.672177 5.00225C-1.09861 2.78148 0.887315 -0.584649 3.63022 0.0870557Z" fill="#23292F"/>
</svg>
