<svg width="24" height="24" viewBox="0 0 24 24" fill="none" xmlns="http://www.w3.org/2000/svg">
<path fill-rule="evenodd" clip-rule="evenodd" d="M0.750034 12C0.750034 5.7868 5.78683 0.75 12 0.75C18.2132 0.75 23.25 5.7868 23.25 12C23.25 18.2132 18.2132 23.25 12 23.25C10.005 23.25 8.12847 22.7297 6.50191 21.817L2.39532 23.1859C1.94615 23.3356 1.45094 23.2187 1.11615 22.8839C0.78136 22.5491 0.664457 22.0539 0.81418 21.6047L2.18304 17.4981C1.27035 15.8716 0.750034 13.995 0.750034 12ZM12 3.25C7.16754 3.25 3.25003 7.16751 3.25003 12C3.25003 13.7238 3.74721 15.3276 4.60551 16.6804C4.80684 16.9977 4.85472 17.3888 4.73588 17.7453L3.97646 20.0236L6.25471 19.2642C6.61125 19.1453 7.00233 19.1932 7.31967 19.3945C8.67245 20.2528 10.2763 20.75 12 20.75C16.8325 20.75 20.75 16.8325 20.75 12C20.75 7.16751 16.8325 3.25 12 3.25Z" fill="#14181F"/>
</svg>
