<svg width="47" height="27" viewBox="0 0 47 27" fill="none" xmlns="http://www.w3.org/2000/svg">
<path d="M39.1668 2.45455C40.9006 2.45455 42.3061 3.86003 42.3061 5.59378V21.4062C42.3061 23.14 40.9006 24.5455 39.1668 24.5455C37.4331 24.5455 36.0276 23.14 36.0276 21.4062V5.59378C36.0276 3.86003 37.4331 2.45455 39.1668 2.45455Z" fill="#1B1B1B"/>
<path d="M1.56962 8.59091C2.43649 8.59091 3.13923 9.29365 3.13923 10.1605V16.439C3.13923 17.3059 2.43649 18.0086 1.56962 18.0086C0.702741 18.0086 -6.11158e-08 17.3059 0 16.439L4.42648e-07 10.1605C5.03764e-07 9.29365 0.702742 8.59091 1.56962 8.59091Z" fill="#1B1B1B"/>
<path d="M44.661 8.59091C45.5279 8.59091 46.2306 9.29365 46.2306 10.1605V16.439C46.2306 17.3059 45.5279 18.0086 44.661 18.0086C43.7942 18.0086 43.0914 17.3059 43.0914 16.439V10.1605C43.0914 9.29365 43.7942 8.59091 44.661 8.59091Z" fill="#1B1B1B"/>
<path d="M7.06332 2.45455C8.79707 2.45455 10.2026 3.86003 10.2026 5.59378V21.4062C10.2026 23.14 8.79707 24.5455 7.06332 24.5455C5.32957 24.5455 3.92409 23.14 3.92409 21.4062V5.59378C3.92409 3.86003 5.32957 2.45455 7.06332 2.45455Z" fill="#1B1B1B"/>
<path d="M17.2661 3.13923C17.2661 1.40548 15.8606 0 14.1268 0C12.3931 0 10.9876 1.40548 10.9876 3.13923V23.8608C10.9876 25.5945 12.3931 27 14.1268 27C15.8606 27 17.2661 25.5945 17.2661 23.8608V15.5864H28.9654V23.8608C28.9654 25.5945 30.3709 27 32.1046 27C33.8384 27 35.2439 25.5945 35.2439 23.8608V3.13923C35.2439 1.40548 33.8384 0 32.1046 0C30.3709 0 28.9654 1.40548 28.9654 3.13923V12.2727H17.2661V3.13923Z" fill="#1B1B1B"/>
<path fill-rule="evenodd" clip-rule="evenodd" d="M30.9654 23.8608C30.9654 24.49 31.4754 25 32.1046 25C32.7338 25 33.2439 24.4899 33.2439 23.8608V3.13923C33.2439 2.51005 32.7338 2 32.1046 2C31.4754 2 30.9654 2.51005 30.9654 3.13923V23.8608ZM15.2661 3.13923C15.2661 2.51005 14.756 2 14.1268 2C13.4976 2 12.9876 2.51005 12.9876 3.13923V23.8608C12.9876 24.4899 13.4976 25 14.1268 25C14.756 25 15.2661 24.4899 15.2661 23.8608V3.13923ZM40.3061 21.4062V5.59378C40.3061 4.9646 39.796 4.45455 39.1668 4.45455C38.5377 4.45455 38.0276 4.96459 38.0276 5.59378V21.4062C38.0276 22.0354 38.5377 22.5455 39.1668 22.5455C39.796 22.5455 40.3061 22.0354 40.3061 21.4062ZM1.92409 8.6311C1.81017 8.60481 1.69152 8.59091 1.56962 8.59091C0.702742 8.59091 5.03764e-07 9.29365 4.42648e-07 10.1605L0 16.439C-6.11158e-08 17.3059 0.702741 18.0086 1.56962 18.0086C1.69152 18.0086 1.81017 17.9947 1.92409 17.9684C2.62024 17.8077 3.13923 17.184 3.13923 16.439V10.1605C3.13923 9.41556 2.62024 8.7918 1.92409 8.6311ZM35.1526 2.38455C35.2122 2.62629 35.2439 2.87906 35.2439 3.13923V23.8608C35.2439 24.1209 35.2122 24.3737 35.1526 24.6155C34.8147 25.9847 33.5782 27 32.1046 27C30.3709 27 28.9654 25.5945 28.9654 23.8608V15.5864H17.2661V23.8608C17.2661 25.5945 15.8606 27 14.1268 27C12.6528 27 11.4161 25.9841 11.0786 24.6142C11.0191 24.3729 10.9876 24.1205 10.9876 23.8608V3.13923C10.9876 2.87951 11.0191 2.62715 11.0786 2.38578C11.4161 1.01593 12.6528 0 14.1268 0C15.8606 0 17.2661 1.40548 17.2661 3.13923V12.2727H28.9654V3.13923C28.9654 1.40548 30.3709 0 32.1046 0C33.5782 0 34.8147 1.01532 35.1526 2.38455ZM8.98765 23.8867C8.99867 23.8781 9.00964 23.8695 9.02055 23.8608C9.74097 23.2856 10.2026 22.3998 10.2026 21.4062V5.59378C10.2026 4.60021 9.74097 3.71445 9.02055 3.13923C9.00964 3.13053 8.99867 3.12189 8.98765 3.11333C8.45617 2.70041 7.78846 2.45455 7.06332 2.45455C5.32957 2.45455 3.92409 3.86003 3.92409 5.59378V21.4062C3.92409 23.14 5.32957 24.5455 7.06332 24.5455C7.78846 24.5455 8.45617 24.2996 8.98765 23.8867ZM42.3061 5.59378C42.3061 3.86003 40.9006 2.45455 39.1668 2.45455C38.4423 2.45455 37.7751 2.70001 37.2438 3.11233C37.2323 3.12122 37.2209 3.13019 37.2096 3.13923C36.4892 3.71445 36.0276 4.60021 36.0276 5.59378V21.4062C36.0276 22.3998 36.4892 23.2856 37.2096 23.8608C37.2209 23.8698 37.2323 23.8788 37.2438 23.8877C37.7751 24.3 38.4423 24.5455 39.1668 24.5455C40.9006 24.5455 42.3061 23.14 42.3061 21.4062V5.59378ZM44.3061 8.63122C43.6102 8.79209 43.0914 9.41573 43.0914 10.1605V16.439C43.0914 17.1838 43.6102 17.8074 44.3061 17.9683C44.4201 17.9947 44.539 18.0086 44.661 18.0086C45.5279 18.0086 46.2306 17.3059 46.2306 16.439V10.1605C46.2306 9.29365 45.5279 8.59091 44.661 8.59091C44.539 8.59091 44.4201 8.60485 44.3061 8.63122ZM8.20255 21.4062V5.59378C8.20255 4.9646 7.6925 4.45455 7.06332 4.45455C6.43414 4.45455 5.92409 4.9646 5.92409 5.59378V21.4062C5.92409 22.0354 6.43414 22.5455 7.06332 22.5455C7.6925 22.5455 8.20255 22.0354 8.20255 21.4062Z" fill="#1B1B1B"/>
</svg>
