<svg width="25" height="25" viewBox="0 0 25 25" fill="none" xmlns="http://www.w3.org/2000/svg">
<path fill-rule="evenodd" clip-rule="evenodd" d="M3.03074 10.059C3.03074 6.17738 6.17738 3.03074 10.059 3.03074C13.9405 3.03074 17.0872 6.17738 17.0872 10.059C17.0872 13.9405 13.9405 17.0872 10.059 17.0872C6.17738 17.0872 3.03074 13.9405 3.03074 10.059ZM10.059 0C4.50355 0 0 4.50355 0 10.059C0 15.6144 4.50355 20.1179 10.059 20.1179C12.2893 20.1179 14.3514 19.3913 16.0194 18.1625L22.4131 24.5562C23.0049 25.1479 23.9644 25.1479 24.5561 24.5562C25.1479 23.9644 25.1479 23.0049 24.5561 22.4131L18.1625 16.0195C19.3913 14.3514 20.1179 12.2893 20.1179 10.059C20.1179 4.50355 15.6144 0 10.059 0ZM16.0785 17.15L22.9489 24.0204C23.2448 24.3163 23.7245 24.3163 24.0204 24.0204C24.0574 23.9834 24.0897 23.9436 24.1175 23.9015C24.0897 23.9435 24.0574 23.9834 24.0204 24.0204C23.7245 24.3163 23.2448 24.3163 22.9489 24.0204L16.0785 17.15C16.0785 17.15 16.0785 17.15 16.0785 17.15ZM2.55975 4.55559C1.42691 6.09666 0.757685 7.99966 0.757685 10.059C0.757685 15.1959 4.92201 19.3602 10.059 19.3602C12.0677 19.3602 13.9277 18.7235 15.4482 17.6408C13.9277 18.7235 12.0677 19.3602 10.059 19.3602C4.92203 19.3602 0.757708 15.1959 0.757708 10.0589C0.757708 7.99964 1.42693 6.09666 2.55975 4.55559ZM3.7746 5.46164C5.19129 3.52837 7.47853 2.27305 10.059 2.27305C14.359 2.27305 17.8449 5.75893 17.8449 10.059C17.8449 11.134 17.627 12.1581 17.233 13.0896C17.627 12.1581 17.8449 11.134 17.8449 10.0589C17.8449 5.75889 14.359 2.27302 10.059 2.27302C7.47854 2.27302 5.19128 3.52835 3.7746 5.46164Z" fill="#23292F"/>
</svg>
