<svg width="20" height="18" viewBox="0 0 20 18" fill="none" xmlns="http://www.w3.org/2000/svg">
<path fill-rule="evenodd" clip-rule="evenodd" d="M1.46967 1.28033C1.17678 0.987437 1.17678 0.512563 1.46967 0.21967C1.76256 -0.0732233 2.23744 -0.0732233 2.53033 0.21967L18.5303 16.2197C18.8232 16.5126 18.8232 16.9874 18.5303 17.2803C18.2374 17.5732 17.7626 17.5732 17.4697 17.2803L14.6429 14.4536C13.2337 15.2209 11.66 15.75 10 15.75C6.18448 15.75 2.82549 12.9547 0.869705 10.8969C-0.289902 9.67683 -0.289902 7.82317 0.869706 6.6031C1.69953 5.73001 2.78196 4.72414 4.04468 3.85534L1.46967 1.28033ZM7.41536 7.22603C7.15145 7.67266 7 8.19364 7 8.75C7 10.4069 8.34315 11.75 10 11.75C10.5564 11.75 11.0773 11.5986 11.524 11.3346L7.41536 7.22603ZM10 1.75C13.8155 1.75 17.1745 4.54533 19.1303 6.6031C20.2899 7.82317 20.2899 9.67683 19.1303 10.8969C18.6902 11.3599 18.1791 11.8603 17.6078 12.3577L7.4127 2.16264C8.24217 1.90256 9.10863 1.75 10 1.75Z" fill="#D0D4D9" fill-opacity="0.6"/>
</svg>
