<svg width="24" height="20" viewBox="0 0 24 20" fill="none" xmlns="http://www.w3.org/2000/svg">
<path d="M17.7945 19.9446C25.8218 20.4137 25.7954 15.1808 19.2487 10.5816C17.0813 9.05895 15.2549 12.0193 12.1897 12.0193C9.12453 12.0193 7.18354 9.05895 5.01612 10.5816C-1.5345 15.1836 -2.11001 20.4267 5.92305 19.9724L12.1898 19.9446H17.7945Z" fill="#B2B6B7"/>
<path d="M17.5809 5.30978C17.5809 8.24228 15.1672 10.6196 12.1897 10.6196C9.21227 10.6196 6.79857 8.24228 6.79857 5.30978C6.79857 2.37727 9.21227 0 12.1897 0C15.1672 0 17.5809 2.37727 17.5809 5.30978Z" fill="#B2B6B7"/>
<path fill-rule="evenodd" clip-rule="evenodd" d="M12.1898 18.4446L17.8383 18.4446L17.882 18.4472C19.7595 18.5569 20.9732 18.3166 21.6745 17.9766C22.3105 17.6682 22.4639 17.3254 22.494 17.0177C22.5345 16.6035 22.3756 15.8917 21.6868 14.9159C21.014 13.9627 19.9236 12.8889 18.3864 11.809C18.1562 11.6473 18.0089 11.6329 17.8426 11.653C17.5944 11.6831 17.2667 11.8039 16.7213 12.0738C16.6029 12.1324 16.4745 12.1987 16.3367 12.2699C15.3627 12.7728 13.9169 13.5193 12.1897 13.5193C10.4753 13.5193 9.01279 12.7824 8.01781 12.2811C7.87324 12.2082 7.73854 12.1403 7.61438 12.0804C7.05541 11.8107 6.70929 11.6849 6.44367 11.6534C6.257 11.6313 6.10289 11.6513 5.87839 11.809C4.33326 12.8945 3.1958 13.9804 2.46417 14.9549C1.71193 15.9568 1.49041 16.7013 1.50032 17.1391C1.50717 17.4416 1.61458 17.7314 2.15615 18.0094C2.78967 18.3346 3.95168 18.5815 5.83837 18.4748L5.87735 18.4726L12.1898 18.4446ZM12.1898 19.9446H17.7945C25.8218 20.4137 25.7954 15.1808 19.2487 10.5816C18.3959 9.98246 17.5958 10.0774 16.7523 10.4131C16.3857 10.5589 16.0109 10.7502 15.62 10.9498C14.6245 11.4579 13.5246 12.0193 12.1897 12.0193C10.8602 12.0193 9.74218 11.4624 8.72545 10.9559C8.37044 10.779 8.02779 10.6083 7.69279 10.4696C6.77526 10.0898 5.91517 9.95001 5.01612 10.5816C-1.5345 15.1836 -2.11001 20.4267 5.92305 19.9724L12.1898 19.9446ZM8.50527 9.18604C7.4549 8.21717 6.79857 6.83897 6.79857 5.30978C6.79857 2.37727 9.21227 0 12.1897 0C15.1672 0 17.5809 2.37727 17.5809 5.30978C17.5809 6.80915 16.9499 8.16337 15.9352 9.12891C14.9653 10.0518 13.6448 10.6196 12.1897 10.6196C10.7649 10.6196 9.46917 10.0752 8.50527 9.18604ZM12.1897 9.11955C14.3604 9.11955 16.0809 7.39243 16.0809 5.30978C16.0809 3.22712 14.3604 1.5 12.1897 1.5C10.0191 1.5 8.29857 3.22712 8.29857 5.30978C8.29857 7.39243 10.0191 9.11955 12.1897 9.11955Z" fill="#B2B6B7"/>
</svg>
