<svg width="21" height="22" viewBox="0 0 21 22" fill="none" xmlns="http://www.w3.org/2000/svg">
<g clip-path="url(#clip0_39_23)">
<path d="M21.0001 11.0767C21.0001 10.3406 20.9411 9.60059 20.8151 8.87646H10.7107V13.0462H16.497C16.2569 14.391 15.4854 15.5806 14.3557 16.3366V19.0421H17.8078C19.835 17.1562 21.0001 14.3711 21.0001 11.0767Z" fill="#4285F4"/>
<path d="M10.7107 21.6563C13.5999 21.6563 16.0365 20.6974 17.8117 19.0423L14.3596 16.3367C13.3992 16.9972 12.1593 17.3712 10.7146 17.3712C7.91989 17.3712 5.55025 15.4654 4.70002 12.9031H1.1377V15.6922C2.95625 19.3486 6.66028 21.6563 10.7107 21.6563Z" fill="#34A853"/>
<path d="M4.69599 12.903C4.24725 11.5581 4.24725 10.1019 4.69599 8.75711V5.96802H1.1376C-0.381803 9.02766 -0.381803 12.6324 1.1376 15.692L4.69599 12.903Z" fill="#FBBC04"/>
<path d="M10.7107 4.28509C12.238 4.26122 13.7141 4.84212 14.8202 5.90842L17.8787 2.81694C15.942 0.978766 13.3716 -0.0318326 10.7107 -2.7272e-06C6.66028 -2.7272e-06 2.95625 2.30766 1.1377 5.9681L4.69608 8.75719C5.54238 6.19091 7.91595 4.28509 10.7107 4.28509Z" fill="#EA4335"/>
</g>
<defs>
<clipPath id="clip0_39_23">
<rect width="21" height="21.6562" fill="white"/>
</clipPath>
</defs>
</svg>
