<svg width="36" height="25" viewBox="0 0 36 25" fill="none" xmlns="http://www.w3.org/2000/svg">
<path d="M17.8571 10.7143C20.8158 10.7143 23.2143 8.31581 23.2143 5.35714C23.2143 2.39848 20.8158 0 17.8571 0C14.8985 0 12.5 2.39848 12.5 5.35714C12.5 8.31581 14.8985 10.7143 17.8571 10.7143Z" fill="white"/>
<path d="M17.8571 25C23.7745 25 28.5714 22.6015 28.5714 19.6429C28.5714 16.6842 23.7745 14.2857 17.8571 14.2857C11.9398 14.2857 7.14286 16.6842 7.14286 19.6429C7.14286 22.6015 11.9398 25 17.8571 25Z" fill="white"/>
<path d="M7.82439 14.3197C3.41427 14.5917 0 16.4716 0 18.7502C0 20.6287 2.32052 22.2362 5.60649 22.8952C4.8722 21.901 4.46429 20.8006 4.46429 19.6431C4.46429 17.6012 5.73351 15.7373 7.82439 14.3197Z" fill="white"/>
<path d="M31.2501 19.6431C31.2501 20.8006 30.8422 21.901 30.1079 22.8952C33.3939 22.2362 35.7144 20.6287 35.7144 18.7502C35.7144 16.4716 32.3001 14.5917 27.89 14.3197C29.9809 15.7373 31.2501 17.6012 31.2501 19.6431Z" fill="white"/>
<path d="M24.4969 9.88462C25.3777 8.59536 25.8928 7.03641 25.8928 5.35714C25.8928 4.7999 25.8361 4.2559 25.7281 3.73061C26.0623 3.62715 26.4175 3.57143 26.7857 3.57143C28.7581 3.57143 30.3571 5.17041 30.3571 7.14286C30.3571 9.1153 28.7581 10.7143 26.7857 10.7143C25.9148 10.7143 25.1167 10.4026 24.4969 9.88462Z" fill="white"/>
<path d="M8.92857 3.57143C9.29676 3.57143 9.65195 3.62715 9.98614 3.73061C9.87816 4.2559 9.82143 4.7999 9.82143 5.35714C9.82143 7.03641 10.3365 8.59536 11.2173 9.88462C10.5975 10.4026 9.79946 10.7143 8.92857 10.7143C6.95613 10.7143 5.35714 9.1153 5.35714 7.14286C5.35714 5.17041 6.95613 3.57143 8.92857 3.57143Z" fill="white"/>
</svg>
