<svg width="25" height="27" viewBox="0 0 25 27" fill="none" xmlns="http://www.w3.org/2000/svg">
<path fill-rule="evenodd" clip-rule="evenodd" d="M14.0022 1.482L14.5102 0.93026C13.5252 0.023248 11.9748 0.0232454 10.9898 0.930259L1.53977 9.63137L2.04371 10.1787L1.53977 9.63137C1.04014 10.0914 0.75 10.7331 0.75 11.4125V24.2886C0.75 25.6832 1.9278 26.75 3.3 26.75H6C7.86926 26.75 9.45 25.3001 9.45 23.4329V21.0101C9.45 20.454 9.72513 19.9167 10.2154 19.5671L10.5849 19.3036C10.7525 19.1841 10.9406 19.0901 11.1423 19.0262L11.8546 18.8005C11.9628 18.7662 12.0741 18.7408 12.1872 18.7247L12.4554 18.6864C12.6507 18.6586 12.8493 18.6586 13.0446 18.6864L13.3128 18.7247C13.4259 18.7408 13.5372 18.7662 13.6454 18.8005L14.3577 19.0262C14.5594 19.0901 14.7475 19.1841 14.9151 19.3036L15.2846 19.5671C15.7749 19.9167 16.05 20.454 16.05 21.0101V23.4329C16.05 25.3001 17.6307 26.75 19.5 26.75H22.2C23.5722 26.75 24.75 25.6832 24.75 24.2886V11.4125C24.75 10.7331 24.4599 10.0914 23.9602 9.63137L14.5102 0.93026L14.0022 1.482Z" fill="#E6373A"/>
</svg>
