<svg width="12" height="18" viewBox="0 0 12 18" fill="none" xmlns="http://www.w3.org/2000/svg">
<path fill-rule="evenodd" clip-rule="evenodd" d="M10.8662 15.2997L3.77801 8.98837L10.8649 2.69162C11.1119 2.4722 11.2478 2.18511 11.2478 1.88513C11.2478 1.58515 11.1119 1.29806 10.8649 1.07865C10.3718 0.640451 9.63136 0.640451 9.13818 1.07865L1.26598 8.07312C1.22021 8.10442 1.17603 8.13891 1.13375 8.17656C0.886071 8.39709 0.75 8.68544 0.75 8.98654C0.75 9.28764 0.886071 9.57599 1.13375 9.79653L9.13373 16.9197C9.37597 17.1353 9.63411 17.2501 9.99999 17.2501C10.1724 17.2501 10.3517 17.2248 10.5089 17.1688C10.648 17.1192 10.7988 17.0349 10.8939 16.8943C11.124 16.6773 11.25 16.3994 11.25 16.1097C11.25 15.8086 11.1139 15.5202 10.8662 15.2997Z" fill="#D0D4D9"/>
</svg>
