<svg width="18" height="23" viewBox="0 0 18 23" fill="none" xmlns="http://www.w3.org/2000/svg">
<path fill-rule="evenodd" clip-rule="evenodd" d="M5.34375 5.34375C5.34375 3.32446 6.98071 1.6875 9 1.6875C11.0193 1.6875 12.6562 3.32446 12.6562 5.34375V6.75H5.34375V5.34375ZM3.65625 6.82897V5.34375C3.65625 2.39248 6.04873 0 9 0C11.9513 0 14.3438 2.39248 14.3438 5.34375V6.82897C16.4257 7.22391 18 9.05311 18 11.25V18C18 20.4853 15.9853 22.5 13.5 22.5H4.5C2.01472 22.5 0 20.4853 0 18V11.25C0 9.05311 1.57427 7.22391 3.65625 6.82897ZM9 12.6562C9.46599 12.6562 9.84375 13.034 9.84375 13.5V15.75C9.84375 16.216 9.46599 16.5938 9 16.5938C8.53401 16.5938 8.15625 16.216 8.15625 15.75V13.5C8.15625 13.034 8.53401 12.6562 9 12.6562Z" fill="#D0D4D9" fill-opacity="0.6"/>
</svg>
