<svg width="21" height="25" viewBox="0 0 21 25" fill="none" xmlns="http://www.w3.org/2000/svg">
<path fill-rule="evenodd" clip-rule="evenodd" d="M10.2162 0C10.3114 0 10.406 0.00210068 10.5 0.00625316C10.594 0.00210068 10.6886 0 10.7838 0C13.9184 0 16.4595 2.27938 16.4595 5.09114C16.4595 5.15427 16.4582 5.21713 16.4556 5.2797H16.4595V9.30233H17.5946C19.4753 9.30233 21 10.8641 21 12.7907V18.0233C21 21.8764 17.9507 25 14.1892 25H10.5H6.81081C3.0493 25 0 21.8764 0 18.0233V12.7907C0 10.8641 1.52465 9.30233 3.40541 9.30233H4.54054V5.2797H4.54436C4.54182 5.21713 4.54054 5.15427 4.54054 5.09114C4.54054 2.27938 7.08163 0 10.2162 0ZM10.5 20.9302C11.0486 20.9302 11.4932 19.4573 11.4932 18.8953V16.5882C12.087 16.2364 12.4865 15.5788 12.4865 14.8256C12.4865 13.7017 11.5971 12.7907 10.5 12.7907C9.40289 12.7907 8.51351 13.7017 8.51351 14.8256C8.51351 15.5788 8.91299 16.2364 9.50676 16.5882V18.8953C9.50676 19.4573 9.95145 20.9302 10.5 20.9302ZM10.5 9.30233H13.6437V5.20179H13.6411C13.6428 5.16295 13.6437 5.12394 13.6437 5.08475C13.6437 3.33952 12.9157 2.92474 10.7842 2.92474C10.6866 2.92474 10.5918 2.92561 10.5 2.92744C10.4082 2.92561 10.3134 2.92474 10.2158 2.92474C8.08425 2.92474 7.35631 3.33952 7.35631 5.08475C7.35631 5.12394 7.35718 5.16295 7.35891 5.20179H7.35631V9.30233H10.5Z" fill="#D0D4D9" fill-opacity="0.6"/>
</svg>
