<svg width="24" height="16" viewBox="0 0 24 16" fill="none" xmlns="http://www.w3.org/2000/svg">
<path d="M3 0C2.75 0 2.50732 0.0298295 2.27539 0.0857008C1.99561 0.152936 1.73145 0.258049 1.48877 0.39536L11.1567 9.57576C11.3916 9.7983 11.6943 9.91383 12 9.9214C12.3057 9.91383 12.6084 9.7983 12.8433 9.57576L22.5112 0.39536C22.2686 0.258049 22.0044 0.152936 21.7246 0.0857008C21.4927 0.0298295 21.25 0 21 0H3Z" fill="#D0D4D9" fill-opacity="0.6"/>
<path d="M12 11.3759C11.3154 11.3684 10.6333 11.1141 10.1074 10.6151L8.43994 9.03125L0.950195 15.2154C1.48682 15.7022 2.20752 16 3 16H21C21.7925 16 22.5132 15.7022 23.0498 15.2154L15.5601 9.03125L13.8926 10.6151C13.3667 11.1141 12.6846 11.3684 12 11.3759Z" fill="#D0D4D9" fill-opacity="0.6"/>
<path d="M0.422852 1.41903C0.154297 1.85511 0 2.36458 0 2.90909V13.0909C0 13.2528 0.0136719 13.4115 0.0400391 13.5658C0.0512695 13.6307 0.0644531 13.6946 0.0795898 13.7576C0.0898438 13.8002 0.101074 13.8428 0.113281 13.8849L7.36133 8.00758L0.422852 1.41903Z" fill="#D0D4D9" fill-opacity="0.6"/>
<path d="M23.5771 1.41903C23.8457 1.85511 24 2.36458 24 2.90909V13.0909C24 13.2528 23.9863 13.4115 23.96 13.5658C23.9487 13.6307 23.9355 13.6946 23.9204 13.7576C23.9102 13.8002 23.8989 13.8428 23.8867 13.8849L16.6387 8.00758L23.5771 1.41903Z" fill="#D0D4D9" fill-opacity="0.6"/>
</svg>
