<svg width="20" height="20" viewBox="0 0 20 20" fill="none" xmlns="http://www.w3.org/2000/svg">
<path d="M10.0007 5.71387C10.6536 5.71387 11.1558 5.19489 11.1558 4.57547C11.1558 3.93931 10.6536 3.42871 10.0007 3.42871C9.34776 3.42871 8.83716 3.93931 8.83716 4.57547C8.83716 5.19489 9.34776 5.71387 10.0007 5.71387ZM8.95435 14.859C8.95435 15.4112 9.40206 15.859 9.95435 15.859H10.0386C10.5909 15.859 11.0386 15.4112 11.0386 14.859V7.98619C11.0386 7.4339 10.5909 6.98619 10.0386 6.98619H9.95435C9.40206 6.98619 8.95435 7.4339 8.95435 7.98619V14.859Z" fill="#F57874"/>
<path fill-rule="evenodd" clip-rule="evenodd" d="M10 18.5C14.6944 18.5 18.5 14.6944 18.5 10C18.5 5.30558 14.6944 1.5 10 1.5C5.30558 1.5 1.5 5.30558 1.5 10C1.5 14.6944 5.30558 18.5 10 18.5ZM10 20C15.5228 20 20 15.5228 20 10C20 4.47715 15.5228 0 10 0C4.47715 0 0 4.47715 0 10C0 15.5228 4.47715 20 10 20Z" fill="#F57874"/>
</svg>
