<svg width="21" height="21" viewBox="0 0 21 21" fill="none" xmlns="http://www.w3.org/2000/svg">
<path fill-rule="evenodd" clip-rule="evenodd" d="M10.5 21C16.299 21 21 16.299 21 10.5C21 4.70101 16.299 0 10.5 0C4.70101 0 0 4.70101 0 10.5C0 16.299 4.70101 21 10.5 21ZM10.5008 7.87296C11.3706 7.87296 12.0758 7.18829 12.0758 6.34371C12.0758 5.49912 11.3706 4.81445 10.5008 4.81445C9.63093 4.81445 8.92578 5.49912 8.92578 6.34371C8.92578 7.18829 9.63093 7.87296 10.5008 7.87296ZM10.3749 16.7988C9.97674 16.7988 9.64121 16.5102 9.59318 16.1264L9.03244 9.54578C8.97543 9.09026 9.34159 8.68892 9.81419 8.68892H11.1856C11.6584 8.68892 12.0246 9.09062 11.9673 9.54631L11.4033 16.127C11.355 16.5105 11.0196 16.7988 10.6216 16.7988H10.3749Z" fill="#D0D4D9" fill-opacity="0.6"/>
</svg>
