<svg width="21" height="25" viewBox="0 0 21 25" fill="none" xmlns="http://www.w3.org/2000/svg">
<path fill-rule="evenodd" clip-rule="evenodd" d="M15.8919 5.09114C15.8919 5.15427 15.8906 5.21713 15.8881 5.2797H15.8919V9.30233H17.5946C19.4753 9.30233 21 10.8641 21 12.7907V18.0233C21 21.8764 17.9507 25 14.1892 25H6.81081C3.0493 25 0 21.8764 0 18.0233V12.7907C0 10.8641 1.52465 9.30233 3.40541 9.30233H4.54054V5.2797H4.54436C4.54182 5.21713 4.54054 5.15427 4.54054 5.09114C4.54054 2.27938 7.08163 0 10.2162 0C13.3508 0 15.8919 2.27938 15.8919 5.09114ZM7.35631 9.30233V5.20179H7.35891C7.35718 5.16295 7.35631 5.12394 7.35631 5.08475C7.35631 3.33952 8.08425 2.92474 10.2158 2.92474C12.3473 2.92474 13.0752 3.33952 13.0752 5.08475C13.0752 5.12394 13.0744 5.16295 13.0726 5.20179H13.0752V9.30233H7.35631ZM11.4932 16.5882C12.087 16.2364 12.4865 15.5788 12.4865 14.8256C12.4865 13.7017 11.5971 12.7907 10.5 12.7907C9.40289 12.7907 8.51351 13.7017 8.51351 14.8256C8.51351 15.5788 8.91299 16.2364 9.50676 16.5882V18.8953C9.50676 19.4573 9.95145 20.9302 10.5 20.9302C11.0486 20.9302 11.4932 19.4573 11.4932 18.8953V16.5882Z" fill="#B2B6B7"/>
</svg>
