<svg width="18" height="18" viewBox="0 0 18 18" fill="none" xmlns="http://www.w3.org/2000/svg">
<g filter="url(#filter0_b_106_31)">
<path d="M18 9.00009C18 13.9706 13.9706 18 9 18C4.02944 18 0 13.9706 0 9.00009C0 4.02958 4.02944 0.000183105 9 0.000183105C13.9706 0.000183105 18 4.02958 18 9.00009Z" fill="#23292F" fill-opacity="0.2"/>
</g>
<path d="M13.4766 13.4766C13.0274 13.9258 12.4285 13.9258 11.9792 13.4766L4.49223 5.98966C4.04301 5.54044 4.04301 4.94149 4.49223 4.49227C4.94145 4.04306 5.54041 4.04306 5.98963 4.49227L13.4766 11.9792C13.9259 12.4284 13.9259 13.0274 13.4766 13.4766Z" fill="#F5F7F8"/>
<path d="M13.4766 5.98966L5.98963 13.4766C5.54041 13.9258 4.94145 13.9258 4.49223 13.4766C4.04301 13.0274 4.04301 12.4284 4.49223 11.9792L11.9792 4.49228C12.4285 4.04306 13.0274 4.04306 13.4766 4.49228C13.9259 4.94149 13.9259 5.54045 13.4766 5.98966Z" fill="#F5F7F8"/>
<defs>
<filter id="filter0_b_106_31" x="-26" y="-25.9998" width="70" height="69.9998" filterUnits="userSpaceOnUse" color-interpolation-filters="sRGB">
<feFlood flood-opacity="0" result="BackgroundImageFix"/>
<feGaussianBlur in="BackgroundImage" stdDeviation="13"/>
<feComposite in2="SourceAlpha" operator="in" result="effect1_backgroundBlur_106_31"/>
<feBlend mode="normal" in="SourceGraphic" in2="effect1_backgroundBlur_106_31" result="shape"/>
</filter>
</defs>
</svg>
