<svg width="11" height="16" viewBox="0 0 11 16" fill="none" xmlns="http://www.w3.org/2000/svg">
<path d="M10.6778 8.0339C10.6778 8.29943 10.5781 8.47647 10.3789 8.65349L2.40934 15.7345C2.01087 16.0885 1.41316 16.0885 1.01468 15.7345C0.616201 15.3804 0.616201 14.8493 1.01468 14.4953L8.98423 7.4143C9.38271 7.06025 9.98042 7.06025 10.3789 7.4143C10.5781 7.50282 10.6778 7.76836 10.6778 8.0339Z" fill="#BFC1CE"/>
<path d="M1.71386 0.000283241C2.01386 0.000283241 2.21387 0.0893259 2.41387 0.267405L10.4138 7.39054C10.8138 7.74669 10.8138 8.28092 10.4138 8.63708C10.0138 8.99324 9.41383 8.99324 9.01383 8.63708L1.01385 1.51395C0.613848 1.15779 0.613848 0.623561 1.01385 0.267405C1.11385 0.0893259 1.41386 0.000283241 1.71386 0.000283241Z" fill="#BFC1CE"/>
</svg>
