<svg width="30" height="30" viewBox="0 0 30 30" fill="none" xmlns="http://www.w3.org/2000/svg">
<g filter="url(#filter0_b_39_133)">
<circle cx="15" cy="15" r="15" fill="#FDFCFC"/>
</g>
<path fill-rule="evenodd" clip-rule="evenodd" d="M6.48928 13.1095C6.48928 10.4961 8.80764 8.48387 11.5289 8.48387C12.9316 8.48387 14.166 9.25885 15.0517 10.1005C15.9375 9.25885 17.1718 8.48387 18.5746 8.48387C21.2958 8.48387 23.6142 10.4961 23.6142 13.1095C23.6142 14.8997 22.8422 16.474 21.7727 17.8047C20.705 19.1332 19.3084 20.2606 17.9712 21.1767C17.4605 21.5267 16.9438 21.8495 16.4709 22.0876C16.0269 22.3113 15.5163 22.5161 15.0517 22.5161C14.5872 22.5161 14.0766 22.3113 13.6325 22.0876C13.1597 21.8495 12.643 21.5267 12.1322 21.1767C10.795 20.2606 9.39843 19.1332 8.33077 17.8047C7.26125 16.474 6.48928 14.8997 6.48928 13.1095ZM11.5289 9.93548C9.49421 9.93548 7.95713 11.4153 7.95713 13.1095C7.95713 14.4677 8.54015 15.7323 9.47987 16.9015C10.4214 18.073 11.6883 19.1067 12.9681 19.9835C13.4524 20.3153 13.9085 20.5976 14.2987 20.7941C14.7177 21.0051 14.9604 21.0645 15.0517 21.0645C15.1431 21.0645 15.3858 21.0051 15.8048 20.7941C16.1949 20.5976 16.6511 20.3153 17.1353 19.9835C18.4151 19.1067 19.682 18.073 20.6236 16.9015C21.5633 15.7323 22.1463 14.4677 22.1463 13.1095C22.1463 11.4153 20.6092 9.93548 18.5746 9.93548C17.406 9.93548 16.3149 10.6259 15.6335 11.5022C15.4946 11.6809 15.2796 11.7856 15.0517 11.7856C14.8238 11.7856 14.6088 11.6809 14.4699 11.5022C13.7886 10.6259 12.6974 9.93548 11.5289 9.93548Z" fill="#23292F"/>
<path fill-rule="evenodd" clip-rule="evenodd" d="M6 13.1095C6 10.188 8.5807 8 11.5289 8C12.911 8 14.1291 8.69179 15.0517 9.45161C15.9744 8.69179 17.1924 8 18.5746 8C21.5228 8 24.1034 10.188 24.1034 13.1095C24.1034 15.0438 23.2684 16.7213 22.1557 18.1058C21.046 19.4865 19.6062 20.6452 18.2499 21.5745C17.7303 21.9305 17.1934 22.2668 16.693 22.5188C16.2398 22.747 15.6403 23 15.0517 23C14.4631 23 13.8636 22.747 13.4105 22.5188C12.91 22.2668 12.3732 21.9305 11.8536 21.5745C10.4972 20.6452 9.05742 19.4865 7.94773 18.1058C6.83503 16.7213 6 15.0438 6 13.1095ZM11.5289 8.96774C9.03459 8.96774 6.97856 10.8042 6.97856 13.1095C6.97856 14.7556 7.68747 16.2266 8.7138 17.5036C9.73944 18.7798 11.0928 19.876 12.4108 20.779C12.9127 21.1229 13.4093 21.4322 13.8546 21.6565C14.2895 21.8755 14.7112 22.0323 15.0517 22.0323C15.3923 22.0323 15.8139 21.8755 16.2489 21.6565C16.6942 21.4322 17.1907 21.1229 17.6926 20.779C19.0106 19.876 20.364 18.7798 21.3897 17.5036C22.416 16.2266 23.1249 14.7556 23.1249 13.1095C23.1249 10.8042 21.0689 8.96774 18.5746 8.96774C17.3278 8.96774 16.2092 9.67167 15.3907 10.4494C15.2013 10.6294 14.9021 10.6294 14.7127 10.4494C13.8942 9.67167 12.7756 8.96774 11.5289 8.96774ZM11.5289 10.4194C9.7258 10.4194 8.44641 11.7192 8.44641 13.1095C8.44641 14.3238 8.96654 15.4851 9.8629 16.6004C10.7624 17.7197 11.9861 18.7221 13.2467 19.5858C13.7222 19.9115 14.1581 20.1803 14.5207 20.3629C14.7136 20.4601 14.8566 20.5175 14.9535 20.5496C15.003 20.566 15.0349 20.5739 15.0517 20.5777C15.0685 20.5739 15.1004 20.566 15.15 20.5496C15.2469 20.5175 15.3898 20.4601 15.5827 20.3629C15.9453 20.1803 16.3813 19.9115 16.8567 19.5858C18.1174 18.7221 19.341 17.7197 20.2406 16.6004C21.1369 15.4851 21.657 14.3238 21.657 13.1095C21.657 11.7192 20.3776 10.4194 18.5746 10.4194C17.5972 10.4194 16.637 11.0053 16.0214 11.7971C15.7899 12.0949 15.4316 12.2695 15.0517 12.2695C14.6719 12.2695 14.3136 12.0949 14.082 11.7971C13.4664 11.0053 12.5062 10.4194 11.5289 10.4194ZM7.46785 13.1095C7.46785 11.1114 9.26262 9.45161 11.5289 9.45161C12.8887 9.45161 14.1108 10.2465 14.8578 11.2072C14.9041 11.2668 14.9758 11.3017 15.0517 11.3017C15.1277 11.3017 15.1994 11.2668 15.2457 11.2072C15.9927 10.2465 17.2148 9.45161 18.5746 9.45161C20.8408 9.45161 22.6356 11.1114 22.6356 13.1095C22.6356 14.6116 21.9897 15.9794 21.0066 17.2026C20.023 18.4264 18.7129 19.4913 17.414 20.3813C16.9209 20.7191 16.4446 21.0149 16.0268 21.2253C15.8007 21.3391 15.6128 21.4169 15.4608 21.4673C15.3207 21.5137 15.1772 21.5484 15.0517 21.5484C14.9262 21.5484 14.7828 21.5137 14.6427 21.4673C14.4906 21.4169 14.3027 21.3391 14.0766 21.2253C13.6589 21.0149 13.1826 20.7191 12.6895 20.3813C11.3906 19.4914 10.0804 18.4264 9.09683 17.2026C8.11375 15.9794 7.46785 14.6116 7.46785 13.1095Z" fill="#23292F"/>
<defs>
<filter id="filter0_b_39_133" x="-18" y="-18" width="66" height="66" filterUnits="userSpaceOnUse" color-interpolation-filters="sRGB">
<feFlood flood-opacity="0" result="BackgroundImageFix"/>
<feGaussianBlur in="BackgroundImage" stdDeviation="9"/>
<feComposite in2="SourceAlpha" operator="in" result="effect1_backgroundBlur_39_133"/>
<feBlend mode="normal" in="SourceGraphic" in2="effect1_backgroundBlur_39_133" result="shape"/>
</filter>
</defs>
</svg>
