<svg width="18" height="18" viewBox="0 0 18 18" fill="none" xmlns="http://www.w3.org/2000/svg">
<path fill-rule="evenodd" clip-rule="evenodd" d="M7.13724 14.2745C11.079 14.2745 14.2745 11.079 14.2745 7.13724C14.2745 3.19545 11.079 0 7.13724 0C3.19545 0 0 3.19545 0 7.13724C0 11.079 3.19545 14.2745 7.13724 14.2745ZM13.1171 7.13724C13.1171 10.4398 10.4398 13.1171 7.13724 13.1171C3.83466 13.1171 1.15739 10.4398 1.15739 7.13724C1.15739 3.83466 3.83466 1.15739 7.13724 1.15739C10.4398 1.15739 13.1171 3.83466 13.1171 7.13724Z" fill="#23292F" fill-opacity="0.2"/>
<path d="M17.5538 17.5538C16.9588 18.1487 15.9941 18.1487 15.3991 17.5538L10.991 13.1457C11.8322 12.563 12.563 11.8322 13.1456 10.991L17.5538 15.3991C18.1487 15.9941 18.1487 16.9588 17.5538 17.5538Z" fill="#23292F" fill-opacity="0.2"/>
</svg>
