<svg width="20" height="20" viewBox="0 0 20 20" fill="none" xmlns="http://www.w3.org/2000/svg">
<path fill-rule="evenodd" clip-rule="evenodd" d="M8.04717 0C3.60284 0 0 3.60284 0 8.04717C0 12.4915 3.60284 16.0943 8.04717 16.0943C9.8314 16.0943 11.4811 15.513 12.8156 14.53L17.9305 19.6449C18.4039 20.1184 19.1715 20.1184 19.6449 19.6449C20.1183 19.1715 20.1183 18.4039 19.6449 17.9305L14.53 12.8156C15.513 11.4811 16.0943 9.83141 16.0943 8.04717C16.0943 3.60284 12.4915 0 8.04717 0ZM2.42459 8.04717C2.42459 4.94191 4.94191 2.42459 8.04717 2.42459C11.1524 2.42459 13.6698 4.94191 13.6698 8.04717C13.6698 11.1524 11.1524 13.6698 8.04717 13.6698C4.94191 13.6698 2.42459 11.1524 2.42459 8.04717Z" fill="#23292F"/>
</svg>
