<svg width="30" height="30" viewBox="0 0 30 30" fill="none" xmlns="http://www.w3.org/2000/svg">
<g filter="url(#filter0_b_39_123)">
<circle cx="15" cy="15" r="15" fill="#FDFCFC"/>
</g>
<path d="M21.7174 21.7178C21.0935 22.3417 20.2616 22.3417 19.6377 21.7178L9.23908 11.3192C8.61516 10.6952 8.61516 9.86335 9.23908 9.23943C9.863 8.61552 10.6949 8.61552 11.3188 9.23943L21.7174 19.6381C22.3414 20.262 22.3414 21.0939 21.7174 21.7178Z" fill="#23292F"/>
<path d="M21.7174 11.319L11.3188 21.7176C10.6949 22.3415 9.863 22.3415 9.23908 21.7176C8.61516 21.0937 8.61516 20.2618 9.23908 19.6379L19.6377 9.23924C20.2616 8.61532 21.0935 8.61532 21.7174 9.23924C22.3414 9.86316 22.3414 10.6951 21.7174 11.319Z" fill="#23292F"/>
<g filter="url(#filter1_b_39_123)">
<circle cx="15" cy="15" r="15" fill="#FDFCFC"/>
</g>
<path d="M5.44834 12.6226C5.43038 12.8071 5.47321 12.9923 5.57029 13.1502C5.66736 13.3081 5.81338 13.4299 5.98609 13.4971L12.5266 16.035C12.5681 16.0511 12.5939 16.0926 12.5901 16.1368L11.9855 23.1264C11.9696 23.3111 12.0146 23.4959 12.1135 23.6527C12.2124 23.8095 12.3598 23.9297 12.5334 23.9949C12.7069 24.0601 12.897 24.0668 13.0747 24.014C13.2524 23.9611 13.4079 23.8516 13.5176 23.7022L23.366 10.2822C23.4665 10.1452 23.5236 9.98128 23.5301 9.81154C23.5365 9.6418 23.4919 9.47402 23.4021 9.32985C23.3123 9.18568 23.1813 9.07173 23.0261 9.00269C22.8709 8.93366 22.6986 8.91271 22.5314 8.94254L6.14359 11.8722C5.96194 11.9048 5.79586 11.9957 5.67043 12.1311C5.54501 12.2665 5.46705 12.439 5.44834 12.6226ZM14.1511 19.9648C14.0913 20.0463 13.9622 19.9977 13.9709 19.897L14.3037 16.047C14.3064 16.0156 14.3237 15.9873 14.3505 15.9707L18.9441 13.1087C19.0376 13.0505 19.1427 13.164 19.0776 13.2527L14.1511 19.9648ZM17.9739 11.4833C18.0823 11.4639 18.1378 11.6084 18.0443 11.6666L13.4526 14.5274C13.4259 14.5441 13.3929 14.5471 13.3636 14.5358L9.75939 13.1381C9.66513 13.1015 9.67845 12.9642 9.77797 12.9464L17.9739 11.4833Z" fill="#23292F"/>
<defs>
<filter id="filter0_b_39_123" x="-18" y="-18" width="66" height="66" filterUnits="userSpaceOnUse" color-interpolation-filters="sRGB">
<feFlood flood-opacity="0" result="BackgroundImageFix"/>
<feGaussianBlur in="BackgroundImage" stdDeviation="9"/>
<feComposite in2="SourceAlpha" operator="in" result="effect1_backgroundBlur_39_123"/>
<feBlend mode="normal" in="SourceGraphic" in2="effect1_backgroundBlur_39_123" result="shape"/>
</filter>
<filter id="filter1_b_39_123" x="-18" y="-18" width="66" height="66" filterUnits="userSpaceOnUse" color-interpolation-filters="sRGB">
<feFlood flood-opacity="0" result="BackgroundImageFix"/>
<feGaussianBlur in="BackgroundImage" stdDeviation="9"/>
<feComposite in2="SourceAlpha" operator="in" result="effect1_backgroundBlur_39_123"/>
<feBlend mode="normal" in="SourceGraphic" in2="effect1_backgroundBlur_39_123" result="shape"/>
</filter>
</defs>
</svg>
