<svg width="15" height="15" viewBox="0 0 15 15" fill="none" xmlns="http://www.w3.org/2000/svg">
<path d="M7.50074 7.92352C7.50074 7.68872 7.50074 7.76816 7.50074 7.1467V6.59062V0.805887C7.50074 0.607446 7.50074 0.466089 7.50074 0C7.2518 0 7.08584 0.164765 7.00286 0.411914L5.50922 5.02535H0.530436C0.281496 5.02535 0.115531 5.19011 0.0325516 5.43726C-0.0504282 5.68441 0.0325617 5.93156 0.198521 6.09633L4.09857 8.89734L2.60493 13.5108C2.52195 13.7579 2.60493 14.0051 2.77089 14.1698C2.93685 14.3346 3.26877 14.3346 3.43473 14.1698L7.50074 11.1217V11.1061C7.50074 11.0162 7.50074 11.0308 7.50074 10.9628C7.50074 10.8754 7.50074 10.8135 7.50074 10.7201C7.50074 10.5161 7.50074 10.5647 7.50074 10.254V8.23425C7.50074 7.90465 7.50074 8.06319 7.50074 7.92352Z" fill="#FED201"/>
<path d="M7.50073 7.92452C7.50073 7.68969 7.50073 7.76914 7.50073 7.14761V6.59146L7.50074 0.805887C7.50074 0.607446 7.50074 0.466089 7.50074 0C7.74963 0 7.91554 0.164794 7.99851 0.411973L9.49185 5.02599H14.4697C14.7186 5.02599 14.8845 5.19077 14.9675 5.43795C15.0504 5.68513 14.9674 5.93231 14.8015 6.0971L10.9022 8.89846L12.3956 13.5125C12.4785 13.7597 12.3956 14.0068 12.2297 14.1716C12.0637 14.3364 11.7319 14.3364 11.5659 14.1716L7.50073 11.1231V11.1075C7.50073 11.0176 7.50073 11.0322 7.50073 10.9642C7.50073 10.8768 7.50073 10.8149 7.50073 10.7214C7.50073 10.5175 7.50073 10.566 7.50073 10.2553V8.23529C7.50073 7.90564 7.50073 8.06421 7.50073 7.92452Z" fill="#FED201"/>
</svg>
