<svg width="33" height="28" viewBox="0 0 33 28" fill="none" xmlns="http://www.w3.org/2000/svg">
<path d="M24.2884 27.6405C35.2453 28.2905 35.2092 21.0385 26.2733 14.6646C23.3149 12.5544 20.8221 16.6571 16.6383 16.6571C12.4544 16.6571 9.8051 12.5544 6.8467 14.6646C-2.0945 21.0423 -2.88003 28.3085 8.08461 27.679L16.6383 27.6405H24.2884Z" fill="#24262B"/>
<path d="M23.9969 7.35861C23.9969 11.4227 20.7023 14.7172 16.6383 14.7172C12.5742 14.7172 9.27964 11.4227 9.27964 7.35861C9.27964 3.29456 12.5742 0 16.6383 0C20.7023 0 23.9969 3.29456 23.9969 7.35861Z" fill="#24262B"/>
<path fill-rule="evenodd" clip-rule="evenodd" d="M16.6383 26.1405L24.3329 26.1405L24.3772 26.1431C26.9847 26.2978 28.7431 25.9655 29.8151 25.4378C30.8203 24.943 31.183 24.3125 31.2475 23.6427C31.3221 22.8686 31.0231 21.7396 30.0422 20.3288C29.0766 18.9398 27.5364 17.4081 25.4023 15.8858C24.975 15.581 24.6422 15.5314 24.2911 15.5745C23.8554 15.6281 23.3374 15.8336 22.5889 16.2098C22.4185 16.2955 22.237 16.3903 22.045 16.4907C20.7074 17.1898 18.8568 18.1571 16.6383 18.1571C14.4344 18.1571 12.5606 17.2013 11.194 16.5042C10.9924 16.4014 10.8019 16.3042 10.623 16.2166C9.85569 15.8407 9.31412 15.63 8.85702 15.575C8.48153 15.5298 8.13921 15.5852 7.71775 15.8858C5.57523 17.4141 3.9754 18.9584 2.93221 20.3691C1.86939 21.8064 1.48279 22.968 1.50059 23.7661C1.51547 24.433 1.80845 25.0124 2.70132 25.4777C3.68701 25.9914 5.38152 26.3317 7.99863 26.1815L8.03821 26.1792L16.6383 26.1405ZM16.6383 27.6405H24.2884C35.2453 28.2905 35.2092 21.0385 26.2733 14.6646C24.6033 13.4734 23.0816 14.2621 21.3203 15.1749C19.9616 15.8791 18.4603 16.6571 16.6383 16.6571C14.8235 16.6571 13.2975 15.8853 11.9097 15.1833C10.098 14.2669 8.5219 13.4697 6.8467 14.6646C-2.0945 21.0423 -2.88003 28.3085 8.08461 27.679L16.6383 27.6405ZM16.6383 13.2172C19.8739 13.2172 22.4969 10.5942 22.4969 7.35861C22.4969 4.12299 19.8739 1.5 16.6383 1.5C13.4026 1.5 10.7796 4.12299 10.7796 7.35861C10.7796 10.5942 13.4026 13.2172 16.6383 13.2172ZM16.6383 14.7172C20.7023 14.7172 23.9969 11.4227 23.9969 7.35861C23.9969 3.29456 20.7023 0 16.6383 0C12.5742 0 9.27964 3.29456 9.27964 7.35861C9.27964 11.4227 12.5742 14.7172 16.6383 14.7172Z" fill="#24262B"/>
</svg>
