<svg width="25" height="25" viewBox="0 0 25 25" fill="none" xmlns="http://www.w3.org/2000/svg">
<path d="M8.4375 2.5C8.4375 3.88071 7.31821 5 5.9375 5C4.55679 5 3.4375 3.88071 3.4375 2.5C3.4375 1.11929 4.55679 0 5.9375 0C7.31821 0 8.4375 1.11929 8.4375 2.5Z" fill="#23292F"/>
<path d="M9.6875 7.5C9.6875 8.88071 8.00857 10 5.9375 10C3.86643 10 2.1875 8.88071 2.1875 7.5C2.1875 6.11929 3.86643 5 5.9375 5C8.00857 5 9.6875 6.11929 9.6875 7.5Z" fill="#23292F"/>
<path d="M19.6875 20C21.0682 20 22.1875 18.8807 22.1875 17.5C22.1875 16.1193 21.0682 15 19.6875 15C18.3068 15 17.1875 16.1193 17.1875 17.5C17.1875 18.8807 18.3068 20 19.6875 20Z" fill="#23292F"/>
<path d="M11.25 1.25C11.25 0.732233 11.6697 0.3125 12.1875 0.3125C18.9185 0.3125 24.375 5.76903 24.375 12.5C24.375 13.0178 23.9553 13.4375 23.4375 13.4375C22.9197 13.4375 22.5 13.0178 22.5 12.5C22.5 6.80456 17.8829 2.1875 12.1875 2.1875C11.6697 2.1875 11.25 1.76777 11.25 1.25Z" fill="#23292F"/>
<path d="M0.937501 11.5625C1.45527 11.5625 1.875 11.9822 1.875 12.5C1.875 18.1954 6.49206 22.8125 12.1875 22.8125C12.7053 22.8125 13.125 23.2322 13.125 23.75C13.125 24.2678 12.7053 24.6875 12.1875 24.6875C5.45653 24.6875 0 19.231 0 12.5C0 11.9822 0.419734 11.5625 0.937501 11.5625Z" fill="#23292F"/>
<path d="M19.6875 25C21.7586 25 23.4375 23.8807 23.4375 22.5C23.4375 21.1193 21.7586 20 19.6875 20C17.6164 20 15.9375 21.1193 15.9375 22.5C15.9375 23.8807 17.6164 25 19.6875 25Z" fill="#23292F"/>
</svg>
